<?xml version="1.0" encoding="UTF-8"?>
<svg version="1.1" xmlns="http://www.w3.org/2000/svg" width="1080" height="1080">
<path d="M0 0 C1.17449707 0.52062012 2.34899414 1.04124023 3.55908203 1.57763672 C36.92933136 16.45963673 68.4664229 34.46052244 98 56 C99.06202637 56.7727124 99.06202637 56.7727124 100.14550781 57.56103516 C124.88647628 75.64365289 147.85146026 95.83299884 169.5625 117.4375 C170.20501709 118.07534424 170.84753418 118.71318848 171.50952148 119.37036133 C175.3079242 123.18166184 178.91334458 127.11323754 182.43041992 131.18530273 C184.37265646 133.43085324 186.37182509 135.6212876 188.375 137.8125 C193.10518353 143.0620449 197.58457528 148.48436219 202 154 C202.41475586 154.5151416 202.82951172 155.0302832 203.25683594 155.56103516 C228.26204965 186.67173559 249.15641988 220.3237566 267 256 C267.4842041 256.95519531 267.9684082 257.91039062 268.46728516 258.89453125 C300.78633105 322.8317553 317.70097858 394.65883782 321.25 466 C321.31193542 467.24295334 321.31193542 467.24295334 321.37512207 468.51101685 C321.91320345 479.67982227 322.1169268 490.81923129 322 502 C321.98936523 503.03012207 321.97873047 504.06024414 321.96777344 505.12158203 C320.78917324 577.53026454 304.31899331 650.25257651 274 716 C273.54012695 716.99805664 273.08025391 717.99611328 272.60644531 719.02441406 C252.84887667 761.60284398 228.14159519 800.9990054 198 837 C197.58572754 837.49918945 197.17145508 837.99837891 196.74462891 838.51269531 C185.76817783 851.73645384 174.03062231 864.15621188 161.8815918 876.30371094 C159.93053259 878.25697528 157.98766164 880.21815254 156.04492188 882.1796875 C149.72469542 888.5275438 143.38875688 894.60086754 136.33276367 900.13476562 C133.90754843 902.07392256 131.64144188 904.12855108 129.375 906.25 C58.94527317 970.23662879 -36.95391642 1009.64060623 -145.8125 1027.25 C-146.95340088 1027.40114258 -148.09430176 1027.55228516 -149.26977539 1027.70800781 C-171.45497814 1030.45039911 -193.59630521 1031.37866901 -215.9375 1031.3125 C-217.2240448 1031.31067719 -218.5105896 1031.30885437 -219.83612061 1031.30697632 C-240.37590869 1031.25816821 -260.62264166 1030.6134625 -281 1028 C-281.6717627 1027.91514343 -282.34352539 1027.83028687 -283.03564453 1027.74285889 C-337.83776166 1020.78270559 -390.66644585 1005.77120665 -441 983 C-442.01529785 982.54125488 -443.0305957 982.08250977 -444.07666016 981.60986328 C-458.85381024 974.87268617 -472.98700385 967.19632793 -487 959 C-487.8569043 958.50387207 -488.71380859 958.00774414 -489.59667969 957.49658203 C-514.93770154 942.80350214 -538.46983338 925.67322786 -561 907 C-561.57878906 906.52175781 -562.15757812 906.04351563 -562.75390625 905.55078125 C-575.64878288 894.86987416 -587.7454731 883.42643895 -599.55908203 871.57128906 C-601.39110995 869.7338424 -603.22850605 867.9018835 -605.06640625 866.0703125 C-610.92278967 860.21758142 -616.67847406 854.35108132 -622 848 C-622.9003699 846.95514991 -623.80138366 845.91085422 -624.703125 844.8671875 C-650.17414442 814.94264628 -672.41473492 782.63489875 -691 748 C-691.46760742 747.13713379 -691.93521484 746.27426758 -692.41699219 745.38525391 C-730.46002623 675.00438704 -753.91805955 592.03534085 -754.203125 511.609375 C-754.21018961 510.26473455 -754.21732229 508.92009446 -754.22451782 507.57545471 C-754.24404733 503.30029754 -754.2492101 499.0251976 -754.25 494.75 C-754.25029457 494.02094326 -754.25058914 493.29188652 -754.25089264 492.54073715 C-754.25232762 470.55867837 -754.02367324 448.81787751 -751 427 C-750.90054077 426.2663623 -750.80108154 425.53272461 -750.6986084 424.77685547 C-742.25373892 362.62001271 -724.00395808 304.16713599 -696 248 C-695.54657227 247.08911621 -695.09314453 246.17823242 -694.62597656 245.23974609 C-676.73133924 209.56157766 -653.73672686 176.44730068 -628 146 C-627.45005371 145.34563965 -626.90010742 144.6912793 -626.33349609 144.01708984 C-621.26631356 137.99309244 -616.2154579 132.00944397 -610.54296875 126.5390625 C-608.92856426 124.92874511 -607.47124022 123.24177054 -606 121.5 C-598.38461537 112.67582416 -589.91458562 104.24526708 -581.0078125 96.7265625 C-578.87054286 94.88867693 -576.80363877 92.98246091 -574.73852539 91.06420898 C-568.69008936 85.45181635 -562.47314109 80.12077124 -556 75 C-555.35289062 74.48566406 -554.70578125 73.97132812 -554.0390625 73.44140625 C-543.28259445 64.91109368 -532.31401488 56.77437242 -521 49 C-520.40751465 48.58862793 -519.8150293 48.17725586 -519.20458984 47.75341797 C-441.8991223 -5.81964323 -349.25057845 -37.18519428 -253 -44 C-252.21028809 -44.05784668 -251.42057617 -44.11569336 -250.60693359 -44.17529297 C-175.48366061 -49.51746284 -99.68308699 -37.39620828 0 0 Z " fill="#26243F" transform="translate(757,47)"/>
<path d="M0 0 C3.5744801 2.72607142 4.86277478 4.18928696 5.62145996 8.67152405 C5.64494649 10.11293882 5.64109364 11.55496373 5.61523438 12.99633789 C5.62078339 13.78733887 5.6263324 14.57833984 5.63204956 15.39331055 C5.64384081 18.00371277 5.61956242 20.61237572 5.59375 23.22265625 C5.59203748 25.04764222 5.59210601 26.87263066 5.59387207 28.69761658 C5.59221868 32.52513133 5.57352924 36.35206057 5.54199219 40.17944336 C5.50251149 45.05581555 5.49792415 49.9314142 5.50545502 54.80791569 C5.50854558 58.5803673 5.49632738 62.35264915 5.47932434 66.12505913 C5.4723492 67.92096323 5.46916306 69.71688659 5.47001648 71.51280403 C5.46284038 81.45863153 5.0262457 90.42847434 2 100 C1.58119568 101.52144371 1.58119568 101.52144371 1.15393066 103.07362366 C-4.77329092 124.39051243 -21.41090297 139.11387642 -39.92529297 149.66748047 C-44.42766724 152.19967904 -48.94340723 154.70689965 -53.47265625 157.19067383 C-61.05077126 161.34655079 -68.55337733 165.61180053 -76 170 C-84.43182045 174.96145993 -92.93422453 179.77365582 -101.5 184.5 C-111.10816063 189.80206842 -120.62179088 195.23960957 -130.08203125 200.80078125 C-137.17161049 204.9590021 -144.31803644 209.0037061 -151.5 213 C-159.86897288 217.65682842 -168.17695222 222.40340798 -176.4375 227.25 C-184.02834644 231.70354134 -191.65237789 236.07577074 -199.36083984 240.32226562 C-204.96011399 243.40996219 -210.51658278 246.56755901 -216.0625 249.75 C-223.78252345 254.17982639 -231.5375941 258.54229475 -239.3125 262.875 C-248.59231188 268.05064986 -257.79031424 273.3511418 -266.95117188 278.73413086 C-275.35201241 283.65697364 -283.83675834 288.42111256 -292.36523438 293.11914062 C-304.13960478 298.56111914 -304.13960478 298.56111914 -313 307 C-313.83647486 310.28513122 -313.83647486 310.28513122 -313 314 C-306.50233409 320.84535588 -296.97126141 325.78967729 -289.11636353 330.97891235 C-284.75610136 333.85981416 -280.40369826 336.75254804 -276.05078125 339.64453125 C-275.14206772 340.24792831 -274.23335419 340.85132538 -273.29710388 341.4730072 C-264.32366553 347.43733099 -255.39819666 353.47172913 -246.47497559 359.51080322 C-230.67915592 370.19983171 -214.81409041 380.77578463 -198.875 391.25 C-186.83115728 399.1651206 -174.79632213 407.08859257 -162.875 415.1875 C-161.86808105 415.87038086 -160.86116211 416.55326172 -159.82373047 417.25683594 C-153.25994015 421.74005985 -153.25994015 421.74005985 -151 424 C-150.6430949 427.18469163 -150.55303836 428.24585971 -152 431 C-155.59946459 433.94223917 -159.6013993 436.05618417 -163.6875 438.25 C-165.32235352 439.16652344 -165.32235352 439.16652344 -166.99023438 440.1015625 C-169.97774219 441.76714811 -172.97538729 443.40286856 -176 445 C-177.44789917 445.83869629 -177.44789917 445.83869629 -178.92504883 446.69433594 C-182.66522091 448.28246141 -184.9660501 448.51128741 -189 448 C-191.573549 446.68729878 -193.71063058 445.41455599 -196.046875 443.76953125 C-196.71809387 443.31634521 -197.38931274 442.86315918 -198.08087158 442.39624023 C-200.31439039 440.88312734 -202.53168916 439.34780306 -204.75 437.8125 C-206.34525403 436.72649095 -207.94163579 435.64213685 -209.5390625 434.55932617 C-212.94376172 432.24817721 -216.34227591 429.92831805 -219.73632812 427.6015625 C-227.57046083 422.23444403 -235.4461588 416.92889694 -243.31994629 411.62020874 C-246.02784636 409.7937175 -248.73421111 407.96496779 -251.44042969 406.13598633 C-265.14453519 396.88183498 -278.93589277 387.76544184 -292.75805664 378.68887329 C-308.18559941 368.55495135 -323.51033139 358.27703773 -338.78515625 347.91455078 C-348.16495962 341.55954602 -357.59009535 335.28570397 -367.09375 329.1171875 C-369.10482783 327.80795826 -371.11589564 326.49871362 -373.12695312 325.18945312 C-376.93392201 322.71218058 -380.75158208 320.25268703 -384.57617188 317.80273438 C-408.64417819 302.24649481 -408.64417819 302.24649481 -414.5625 288.75 C-414.87767578 288.09515625 -415.19285156 287.4403125 -415.51757812 286.765625 C-421.48657926 274.04521666 -421.96769381 260.14967876 -417.2578125 246.92578125 C-409.20982123 228.20545374 -394.8097048 220.04177414 -377.75 210.375 C-376.51094542 209.67013679 -375.27201532 208.96505474 -374.03320312 208.25976562 C-365.60417509 203.46413717 -357.1607684 198.69382647 -348.71459961 193.9284668 C-341.23364529 189.705212 -333.77019721 185.45164437 -326.3125 181.1875 C-325.7271347 180.85284729 -325.14176941 180.51819458 -324.53866577 180.17340088 C-318.57436841 176.76332996 -312.61154488 173.35069331 -306.65040588 169.93510437 C-303.70489112 168.24760969 -300.75882747 166.56107525 -297.8125 164.875 C-297.23194855 164.54271393 -296.65139709 164.21042786 -296.05325317 163.86807251 C-287.81306722 159.15384494 -279.54252977 154.49652332 -271.25 149.875 C-263.15278675 145.36224829 -255.11720806 140.75861303 -247.125 136.0625 C-237.52422129 130.42121268 -227.82048376 124.98787732 -218.07128906 119.60791016 C-210.61350915 115.48144294 -203.2235381 111.25525775 -195.875 106.9375 C-183.68365934 99.77618118 -171.35438025 92.87515088 -159 86 C-141.16016194 76.07806246 -141.16016194 76.07806246 -123.51391602 65.81835938 C-117.38210975 62.18665209 -111.16377469 58.71664378 -104.9375 55.25 C-96.57016007 50.59022231 -88.25876978 45.849579 -80 41 C-68.78771068 34.41995324 -57.45895684 28.0622502 -46.10351562 21.73339844 C-40.95616055 18.85845972 -35.82139485 15.9613839 -30.6875 13.0625 C-29.7289209 12.52399414 -28.7703418 11.98548828 -27.78271484 11.43066406 C-23.87290842 9.22774304 -19.98001001 7.02069907 -16.1796875 4.6328125 C-6.5472973 -1.37837838 -6.5472973 -1.37837838 0 0 Z " fill="#4390F4" transform="translate(748,171)"/>
<path d="M0 0 C3.37108731 1.73497854 6.46961005 3.82399662 9.60546875 5.94921875 C10.52475662 6.55828568 11.44404449 7.1673526 12.39118958 7.7948761 C15.33126728 9.74740457 18.25921044 11.71734891 21.1875 13.6875 C23.10538843 14.96268919 25.02400245 16.23678782 26.94335938 17.50976562 C36.09123003 23.59470943 45.16062046 29.77940029 54.140625 36.109375 C63.25259372 42.53118953 72.5206318 48.69080448 81.85107422 54.78955078 C97.82118556 65.23209972 113.70119675 75.80029392 129.5 86.5 C146.28977533 97.86948621 163.17767132 109.08186015 180.13671875 120.19726562 C188.11336622 125.42881554 196.0749152 130.67953883 203.953125 136.05859375 C204.5958989 136.49470978 205.23867279 136.93082581 205.90092468 137.38015747 C217.10378188 145.08231564 226.08007489 155.62125114 229.56640625 169.046875 C232.04996381 185.96191567 229.27089984 201.29735151 219.32421875 215.37109375 C209.59946375 227.38647627 193.63813234 234.10069861 180.38671875 241.44921875 C174.64941679 244.63144696 168.94211072 247.8627444 163.25 251.125 C162.39688232 251.61347412 161.54376465 252.10194824 160.66479492 252.60522461 C158.1093203 254.06920509 155.55453459 255.53437993 153 257 C141.92869971 263.35196722 130.83618463 269.6596514 119.6875 275.875 C111.40477605 280.49474972 103.17910813 285.19926292 95 290 C85.93807852 295.3182619 76.80807632 300.49870924 67.63012695 305.61376953 C59.78902812 309.98751785 51.97984057 314.41512992 44.1875 318.875 C43.60604218 319.20769897 43.02458435 319.54039795 42.42550659 319.88317871 C38.2827758 322.25389051 34.14123961 324.62668456 30 327 C25.27165982 329.70977867 20.54270072 332.4184702 15.8125 335.125 C15.23176727 335.45737671 14.65103455 335.78975342 14.05270386 336.13220215 C5.81270382 340.84634403 -2.45764827 345.50357591 -10.75 350.125 C-18.84721325 354.63775171 -26.88279194 359.24138697 -34.875 363.9375 C-44.47577871 369.57878732 -54.17951624 375.01212268 -63.92871094 380.39208984 C-71.38648756 384.51855524 -78.77652631 388.74463655 -86.125 393.0625 C-95.14214191 398.36085026 -104.22739668 403.51992735 -113.36376953 408.60961914 C-121.2732258 413.02016722 -129.1434347 417.4962606 -137 422 C-149.13502475 428.95505835 -161.31999475 435.81605523 -173.54199219 442.61743164 C-175.71217611 443.83810621 -177.85892899 445.09132399 -180.00390625 446.35546875 C-183.43345567 448.23792026 -185.15819587 448.75165733 -189 448 C-192.62868303 445.23007026 -193.87528226 443.75506807 -194.62818909 439.19680786 C-194.65472413 437.69279966 -194.65388398 436.18815178 -194.63110352 434.68408203 C-194.63825882 433.85888565 -194.64541412 433.03368927 -194.65278625 432.18348694 C-194.66967783 429.4576966 -194.65025171 426.73355178 -194.62890625 424.0078125 C-194.6297357 422.10033025 -194.63219794 420.19284807 -194.63621521 418.28536987 C-194.63907457 414.28215068 -194.62437256 410.27949042 -194.59692383 406.27636719 C-194.56307199 401.18495022 -194.5687806 396.09454764 -194.5875864 391.00308418 C-194.59824896 387.05807305 -194.58913159 383.11329062 -194.57420158 379.16830063 C-194.56907118 377.29393065 -194.56943799 375.41953622 -194.57574654 373.54516983 C-194.62901373 348.17887968 -186.90787113 328.88772612 -168.98046875 310.484375 C-160.79662008 303.66271346 -151.11125094 298.67622259 -141.875 293.4375 C-140.64411747 292.73664586 -139.41332494 292.03563365 -138.18261719 291.33447266 C-129.20126189 286.22351633 -120.18184007 281.18164748 -111.15576172 276.15014648 C-104.05534016 272.18087227 -97.01559204 268.11711265 -90 264 C-77.76494766 256.82175556 -65.39481058 249.89765016 -53 243 C-35.08802487 233.03638328 -35.08802487 233.03638328 -17.36450195 222.74365234 C-10.72106805 218.80862808 -3.99700611 215.02089533 2.73022461 211.23144531 C10.3981727 206.91045379 18.04726321 202.55728048 25.6875 198.1875 C26.87060512 197.5110671 28.05371059 196.83463481 29.23681641 196.15820312 C34.60904715 193.08611337 39.97997939 190.01176416 45.34959412 186.93510437 C48.29510888 185.24760969 51.24117253 183.56107525 54.1875 181.875 C54.76805145 181.54271393 55.34860291 181.21042786 55.94674683 180.86807251 C64.18693651 176.1538428 72.45766285 171.49687319 80.75 166.875 C89.27508808 162.11947163 97.75198784 157.28777844 106.1875 152.375 C107.18555664 151.79476074 108.18361328 151.21452148 109.21191406 150.61669922 C111.81734733 149.09289373 114.41230448 147.55369833 117 146 C117.64702881 145.61610107 118.29405762 145.23220215 118.96069336 144.83666992 C122.11436009 142.87577523 122.92320193 142.22231019 124.1875 138.5625 C123.9843278 134.70222822 123.44474705 133.94479117 120.72094727 131.41381836 C116.96974297 128.33207285 112.90956314 125.69212697 108.875 123 C107.21233289 121.8806498 105.54967406 120.76128727 103.88719177 119.6416626 C101.99808896 118.37065406 100.10724122 117.10226874 98.21630859 115.83398438 C93.57895943 112.72067962 88.9556988 109.58669642 84.33203125 106.453125 C65.96625728 94.01503899 47.53901364 81.67848141 29 69.5 C14.56041692 60.01271781 0.16170825 50.46779036 -14.17163086 40.82055664 C-16.08557734 39.53246953 -18.00028084 38.24550649 -19.91577148 36.9597168 C-22.56217308 35.18246393 -25.20542299 33.40062962 -27.84765625 31.6171875 C-29.02558495 30.82711807 -29.02558495 30.82711807 -30.22731018 30.02108765 C-31.30793983 29.28917709 -31.30793983 29.28917709 -32.41040039 28.54248047 C-33.03491592 28.12143036 -33.65943146 27.70038025 -34.3028717 27.26657104 C-36.06919882 25.94835675 -37.57543345 24.68499372 -39 23 C-39.16796875 20.1171875 -39.16796875 20.1171875 -38 17 C-35.67328186 14.94440861 -33.0482516 13.57013026 -30.3125 12.125 C-28.75896719 11.26719397 -27.20558402 10.40911687 -25.65234375 9.55078125 C-24.87101074 9.12748535 -24.08967773 8.70418945 -23.28466797 8.26806641 C-21.14943747 7.08294274 -19.07458354 5.83681533 -17.00390625 4.54296875 C-16.38926514 4.16575684 -15.77462402 3.78854492 -15.14135742 3.39990234 C-13.47326165 2.37299169 -11.81066761 1.33715959 -10.1484375 0.30078125 C-6.36228198 -1.26347407 -3.82796704 -1.18790982 0 0 Z " fill="#4390F4" transform="translate(523,462)"/>
<path d="M0 0 C5.07282689 3.03570743 9.80373422 6.3893588 14.54296875 9.921875 C19.07395279 13.13848545 23.7828771 16.04199829 28.51586914 18.94995117 C33.65448418 22.10760918 33.65448418 22.10760918 34.734375 23.1875 C35.20399841 28.5881692 35.20399841 28.5881692 33.56933594 30.67431641 C31.22853804 32.60463378 28.76688673 34.02900715 26.125 35.5234375 C24.98998047 36.16861328 23.85496094 36.81378906 22.68554688 37.47851562 C21.4518753 38.17327011 20.21814999 38.86792918 18.984375 39.5625 C17.70873999 40.28537621 16.43335211 41.00868867 15.15820312 41.73242188 C11.94791264 43.55294335 8.73449457 45.36785437 5.51977539 47.18054199 C2.92875679 48.64186515 0.33941687 50.10615347 -2.25 51.5703125 C-5.01071782 53.13087619 -7.77171343 54.69093514 -10.53369141 56.24926758 C-18.16694235 60.55793418 -25.78132899 64.89922997 -33.390625 69.25 C-33.98726959 69.59109802 -34.58391418 69.93219604 -35.19863892 70.28363037 C-41.07837887 73.64533446 -46.95656587 77.00973584 -52.83203125 80.37890625 C-62.19656034 85.74504757 -71.59020525 91.05393686 -81.015625 96.3125 C-87.9776336 100.19727033 -94.9133794 104.11200348 -101.765625 108.1875 C-109.66821954 112.88771047 -117.68257635 117.37988565 -125.72167969 121.84204102 C-130.97305162 124.76138395 -136.19376694 127.71618722 -141.359375 130.78515625 C-142.31424805 131.34799316 -143.26912109 131.91083008 -144.25292969 132.49072266 C-146.05240795 133.55520723 -147.84515627 134.63117831 -149.62988281 135.72021484 C-150.83402832 136.42911865 -150.83402832 136.42911865 -152.0625 137.15234375 C-152.75698242 137.5712085 -153.45146484 137.99007324 -154.16699219 138.42163086 C-156.91397477 139.42410694 -158.50793805 139.06559358 -161.265625 138.1875 C-163.70768174 135.74544326 -163.52826545 135.07877675 -163.57202148 131.7253418 C-163.58800888 130.80065598 -163.60399628 129.87597015 -163.62046814 128.92326355 C-163.62583084 127.92120377 -163.63119354 126.91914398 -163.63671875 125.88671875 C-163.64574722 124.8581929 -163.6547757 123.82966705 -163.66407776 122.76997375 C-163.67860574 120.59024985 -163.68747329 118.41048209 -163.69116211 116.23071289 C-163.70304122 112.8985001 -163.75218873 109.56814881 -163.80273438 106.23632812 C-163.8122002 104.11980072 -163.81943447 102.00326192 -163.82421875 99.88671875 C-163.84375107 98.89073166 -163.86328339 97.89474457 -163.88340759 96.86857605 C-163.85389436 92.33241421 -163.83759456 89.96278661 -161.08911133 86.23730469 C-158.29601286 84.20956109 -155.54076136 82.3824767 -152.53125 80.69140625 C-151.41266602 80.0576709 -150.29408203 79.42393555 -149.14160156 78.77099609 C-147.93302342 78.09718594 -146.72436244 77.42352434 -145.515625 76.75 C-144.25708024 76.0405974 -142.99894808 75.33046237 -141.74121094 74.61962891 C-137.9221156 72.46462264 -134.0946655 70.32477171 -130.265625 68.1875 C-129.15316406 67.56568848 -128.04070312 66.94387695 -126.89453125 66.30322266 C-118.34260201 61.52351067 -118.34260201 61.52351067 -114.41845703 59.3359375 C-107.35890891 55.39073145 -100.36310017 51.3468313 -93.390625 47.25 C-84.95567614 42.29483154 -76.45435617 37.47903215 -67.890625 32.75 C-58.79949262 27.72918289 -49.75739285 22.63430345 -40.765625 17.4375 C-39.6928833 16.81939453 -38.6201416 16.20128906 -37.51489258 15.56445312 C-32.53505671 12.68798046 -27.5771383 9.78355764 -22.66015625 6.80078125 C-21.79648437 6.28290039 -20.9328125 5.76501953 -20.04296875 5.23144531 C-18.45824302 4.27897743 -16.88069519 3.31440698 -15.3125 2.33496094 C-10.16706627 -0.74234957 -5.94862502 -2.13330001 0 0 Z " fill="#458CF1" transform="translate(442.265625,573.8125)"/>
<path d="M0 0 C2.45138106 2.45138106 2.27039698 3.16514934 2.33813477 6.53808594 C2.36057755 7.47956482 2.38302032 8.4210437 2.40614319 9.39105225 C2.41778 10.41184875 2.42941681 11.43264526 2.44140625 12.484375 C2.45517807 13.53272522 2.46894989 14.58107544 2.48313904 15.66119385 C2.50644626 17.88377582 2.52369367 20.10642822 2.53540039 22.32910156 C2.56228858 25.7233121 2.63715779 29.11438952 2.71289062 32.5078125 C2.72955082 34.66664567 2.74331625 36.82550352 2.75390625 38.984375 C2.78376114 39.99707458 2.81361603 41.00977417 2.84437561 42.05316162 C2.80178027 48.91025068 2.80178027 48.91025068 0.61169434 51.88693237 C-1.17511767 53.47823268 -2.9610409 54.75128554 -5 56 C-6.0307666 56.64662598 -7.0615332 57.29325195 -8.12353516 57.95947266 C-9.69047119 58.80324463 -9.69047119 58.80324463 -11.2890625 59.6640625 C-11.86556046 59.97794418 -12.44205841 60.29182587 -13.036026 60.61521912 C-14.26182295 61.28155213 -15.48963663 61.94418709 -16.71932983 62.603302 C-19.32804224 64.00192612 -21.92627691 65.41952538 -24.5252533 66.83613586 C-25.836989 67.55097348 -27.14921335 68.26491517 -28.46192932 68.97795105 C-33.90930812 71.9389328 -39.310884 74.97476502 -44.6875 78.0625 C-45.9259668 78.77273315 -45.9259668 78.77273315 -47.18945312 79.49731445 C-51.83959307 82.1697108 -56.48085084 84.85733966 -61.12109375 87.546875 C-73.35657465 94.63345479 -85.64372531 101.60495511 -98.02270508 108.43798828 C-105.51485727 112.58576872 -112.93062349 116.84691576 -120.3125 121.1875 C-124.20523818 123.46367187 -128.10199057 125.73286993 -132 128 C-133.01126953 128.59103516 -134.02253906 129.18207031 -135.06445312 129.79101562 C-138.05260709 131.52699079 -141.05486264 133.23555457 -144.0625 134.9375 C-144.96073486 135.46432373 -145.85896973 135.99114746 -146.78442383 136.53393555 C-150.43291179 138.57068075 -153.19125245 139.92995835 -157.3828125 140.29296875 C-163.11984403 138.24225878 -167.8313172 134.83561121 -172.8125 131.375 C-173.84181641 130.67503906 -174.87113281 129.97507812 -175.93164062 129.25390625 C-177.97487555 127.86073278 -180.01180135 126.45825674 -182.04199219 125.04614258 C-183.99681692 123.69393178 -185.96619994 122.36250314 -187.95019531 121.0534668 C-188.85479492 120.44929932 -189.75939453 119.84513184 -190.69140625 119.22265625 C-191.49650635 118.69422119 -192.30160645 118.16578613 -193.13110352 117.62133789 C-195.25504133 115.77874207 -195.72464404 114.81019535 -196.125 112.0625 C-196.08375 111.051875 -196.0425 110.04125 -196 109 C-188.93918178 104.10518157 -181.59615058 99.79505559 -174.125 95.5625 C-172.89021985 94.85967764 -171.65552093 94.15671255 -170.42089844 93.45361328 C-160.94469897 88.0657432 -151.41293579 82.78073916 -141.87207031 77.50830078 C-133.48160156 72.85794037 -125.18672994 68.05982921 -116.91699219 63.19873047 C-109.82781309 59.04054167 -102.68162097 54.99616171 -95.5 51 C-87.27796975 46.42433358 -79.1142887 41.76412135 -71 37 C-61.95538274 31.69171679 -52.84954778 26.50808913 -43.6784668 21.42138672 C-37.88234164 18.20015807 -32.12820943 14.91958894 -26.41015625 11.5625 C-24.49982234 10.44729294 -22.58900347 9.33292074 -20.67810059 8.21868896 C-19.44543512 7.49605164 -18.21546755 6.76879021 -16.98840332 6.03668213 C-15.27643385 5.01553522 -13.55439764 4.01132357 -11.83203125 3.0078125 C-10.84952393 2.42660645 -9.8670166 1.84540039 -8.85473633 1.24658203 C-5.62942638 -0.16181894 -3.48323688 -0.3949332 0 0 Z " fill="#488AEE" transform="translate(800,368)"/>
<path d="M0 0 C2.41389765 1.22578476 4.38541998 2.38962838 6.5625 3.9375 C7.78477824 4.76618283 9.0074462 5.59429107 10.23046875 6.421875 C10.85099121 6.84919922 11.47151367 7.27652344 12.11083984 7.71679688 C14.56399568 9.3830914 17.06507573 10.96621088 19.57348633 12.54760742 C21.33958322 13.66509033 23.09345371 14.79936362 24.84375 15.94140625 C26.76911844 17.19718492 28.70438017 18.4381659 30.65625 19.65234375 C34.32518808 22.08753681 35.7521512 23.18355689 37.0625 27.5 C34.63374094 35.50061808 22.39591038 39.67265534 15.4375 43.5 C6.89902933 48.23630129 -1.58222103 53.0523847 -10 58 C-19.13216261 63.36260841 -28.33985896 68.57262255 -37.59399414 73.72143555 C-48.14004675 79.60418279 -58.56097687 85.69648267 -68.96655273 91.82348633 C-72.57255319 93.90984918 -74.77889473 94.34458002 -79 94 C-81.11261231 92.43265415 -81.89896078 91.53117514 -82.39440918 88.92654419 C-82.40282837 88.13110199 -82.41124756 87.33565979 -82.41992188 86.51611328 C-82.43583374 85.61152374 -82.45174561 84.7069342 -82.46813965 83.77493286 C-82.46834106 82.79990814 -82.46854248 81.82488342 -82.46875 80.8203125 C-82.47636353 79.81539764 -82.48397705 78.81048279 -82.49182129 77.77511597 C-82.50263051 75.64844244 -82.50547207 73.52171578 -82.50097656 71.39501953 C-82.50000566 68.14395265 -82.54158927 64.89525634 -82.5859375 61.64453125 C-82.59114552 59.57812992 -82.59383268 57.51172039 -82.59375 55.4453125 C-82.61014526 54.47433624 -82.62654053 53.50335999 -82.64343262 52.50296021 C-82.59769304 48.02558067 -82.54698778 45.73669275 -79.82128906 42.06567383 C-77.03161385 40.02314683 -74.28021865 38.19783248 -71.265625 36.50390625 C-70.14647705 35.86984863 -69.0273291 35.23579102 -67.87426758 34.58251953 C-66.66626332 33.90902733 -65.45817199 33.23569127 -64.25 32.5625 C-62.99658352 31.85602479 -61.74357804 31.14881992 -60.4909668 30.44091797 C-56.66668907 28.28308375 -52.833932 26.14061936 -49 24 C-45.65305505 22.12786864 -42.30617472 20.25562215 -38.95947266 18.38305664 C-36.87612493 17.21919419 -34.79118271 16.05818094 -32.70458984 14.90014648 C-28.05548639 12.31259392 -23.44387877 9.69182641 -18.91015625 6.90625 C-17.74939575 6.19734619 -17.74939575 6.19734619 -16.56518555 5.47412109 C-15.16348954 4.6106976 -13.76951815 3.73452478 -12.38598633 2.84228516 C-8.07242219 0.18595742 -5.03399303 -0.73543047 0 0 Z " fill="#468AF1" transform="translate(361,520)"/>
<path d="M0 0 C2.43391956 2.43391956 2.26955318 3.10441258 2.33813477 6.44628906 C2.36057755 7.36774719 2.38302032 8.28920532 2.40614319 9.23858643 C2.4235984 10.73697052 2.4235984 10.73697052 2.44140625 12.265625 C2.46206398 13.80485626 2.46206398 13.80485626 2.48313904 15.37518311 C2.50644548 17.55068547 2.52369329 19.72625977 2.53540039 21.90185547 C2.56228686 25.22366649 2.6371553 28.54227505 2.71289062 31.86328125 C2.72955105 33.97654105 2.74331641 36.08982606 2.75390625 38.203125 C2.78376114 39.19395081 2.81361603 40.18477661 2.84437561 41.20562744 C2.80172264 47.92791005 2.80172264 47.92791005 0.59136963 50.88366699 C-1.19103008 52.46461627 -2.97541458 53.74751154 -5 55 C-5.9492334 55.60585938 -6.8984668 56.21171875 -7.87646484 56.8359375 C-8.81184082 57.34382812 -9.7472168 57.85171875 -10.7109375 58.375 C-11.77844238 58.96063721 -12.84594727 59.54627441 -13.94580078 60.1496582 C-15.07743652 60.760271 -16.20907227 61.37088379 -17.375 62 C-18.5719696 62.65424566 -19.76841288 63.30945506 -20.96435547 63.96557617 C-23.42571455 65.31530409 -25.88891014 66.66158096 -28.35351562 68.00537109 C-33.96523281 71.06963955 -39.54568216 74.18973782 -45.125 77.3125 C-46.66837036 78.17222412 -46.66837036 78.17222412 -48.24291992 79.04931641 C-52.91649798 81.66266965 -57.55667554 84.31023518 -62.12890625 87.09765625 C-62.90669434 87.56969482 -63.68448242 88.0417334 -64.48583984 88.52807617 C-65.89862311 89.3923837 -67.30462181 90.26793829 -68.70166016 91.1574707 C-72.72656121 93.62331295 -75.31410169 94.4632878 -80 94 C-82.72558594 92.64233398 -82.72558594 92.64233398 -85.484375 90.74609375 C-86.50273438 90.05580078 -87.52109375 89.36550781 -88.5703125 88.65429688 C-89.61960937 87.92275391 -90.66890625 87.19121094 -91.75 86.4375 C-92.78382813 85.73302734 -93.81765625 85.02855469 -94.8828125 84.30273438 C-97.93361852 82.21827308 -100.96839236 80.11225917 -104 78 C-104.96486328 77.33371582 -105.92972656 76.66743164 -106.92382812 75.98095703 C-107.82037109 75.35946777 -108.71691406 74.73797852 -109.640625 74.09765625 C-110.43500977 73.54730713 -111.22939453 72.99695801 -112.04785156 72.42993164 C-115.89064557 69.61511867 -115.89064557 69.61511867 -116.5 66.1875 C-115.90570695 62.39888179 -114.63841579 61.52971492 -111.70962524 59.22689819 C-109.13868191 57.38188231 -106.45127619 55.86577096 -103.66796875 54.36328125 C-102.78462608 53.88206566 -102.78462608 53.88206566 -101.88343811 53.39112854 C-100.63291238 52.71049853 -99.38083683 52.0327092 -98.12731934 51.35760498 C-94.83631078 49.58452778 -91.55730382 47.78950238 -88.27734375 45.99609375 C-87.63471588 45.64532776 -86.99208801 45.29456177 -86.32998657 44.9331665 C-81.58164194 42.33550153 -76.89373541 39.65449232 -72.25 36.875 C-65.54933633 32.87100676 -58.75785564 29.04630432 -51.9375 25.25 C-42.24069333 19.85060803 -32.62253646 14.33033287 -23.05444336 8.70605469 C-20.37328127 7.13101492 -17.68740243 5.56436209 -15 4 C-14.15429443 3.50056885 -13.30858887 3.0011377 -12.43725586 2.48657227 C-11.64198486 2.02694092 -10.84671387 1.56730957 -10.02734375 1.09375 C-9.33116943 0.68705078 -8.63499512 0.28035156 -7.91772461 -0.13867188 C-4.9906858 -1.45332406 -2.95056356 -1.07947447 0 0 Z " fill="#458CF1" transform="translate(800,467)"/>
<path d="M0 0 C2.64 0 5.28 0 8 0 C7.8547445 1.77088083 7.70875402 3.54170136 7.5625 5.3125 C7.48128906 6.29863281 7.40007812 7.28476562 7.31640625 8.30078125 C7.14575741 10.29589788 6.96926108 12.29074056 6.75872803 14.28204346 C5.99266889 21.7973692 5.80824932 29.25780295 5.76171875 36.80859375 C5.75197021 38.1168663 5.74222168 39.42513885 5.73217773 40.77305603 C5.70486851 44.99452783 5.69374606 49.21594982 5.6875 53.4375 C5.68620213 54.15536934 5.68490425 54.87323868 5.68356705 55.61286163 C5.65246934 78.28899076 6.25246983 100.58959013 10 123 C10.30478271 124.83232178 10.30478271 124.83232178 10.61572266 126.70166016 C11.89745448 134.17591595 13.37517084 141.59339802 15 149 C15.1753125 149.81968262 15.350625 150.63936523 15.53125 151.48388672 C17.47775726 160.53400496 19.92996434 169.33856433 22.77734375 178.14453125 C24.30665961 182.8950957 25.61287083 187.70494879 26.91015625 192.5234375 C28.0654642 196.20882846 29.45093679 199.73453469 30.90893555 203.30859375 C32.00105229 206.00259575 33.04773427 208.71059176 34.0859375 211.42578125 C45.49289025 240.93015838 59.67005474 268.71558754 77.1875 295.0625 C77.55959595 295.62245667 77.93169189 296.18241333 78.31506348 296.75933838 C83.61723252 304.7096603 89.1935814 312.41137888 95 320 C95.7892688 321.0350769 95.7892688 321.0350769 96.59448242 322.09106445 C101.7346106 328.79268121 106.99999359 335.31495369 112.734375 341.5234375 C113.96048232 342.86369964 115.17963468 344.21122271 116.35644531 345.5949707 C121.74732146 351.9173463 127.58770499 357.77381141 133.45947266 363.64477539 C135.23761772 365.42510252 137.00759561 367.21328377 138.77734375 369.00195312 C145.54578565 375.80338302 152.47098907 382.04038353 160 388 C161.10212153 388.93443363 162.19845388 389.87580361 163.28515625 390.828125 C172.09027315 398.50628601 181.41759126 405.32660558 191 412 C191.79374023 412.55558594 192.58748047 413.11117188 193.40527344 413.68359375 C224.07264643 435.02384687 257.13688851 451.65218665 292 465 C293.27979736 465.49209961 293.27979736 465.49209961 294.58544922 465.99414062 C324.45606455 477.24849108 356.54461171 483.2161597 388 488 C388 490.64 388 493.28 388 496 C377.31059935 494.94838072 366.76064571 493.63777673 356.23339844 491.45947266 C354.67820586 491.13952595 353.12141815 490.82727679 351.56347656 490.52099609 C316.71162932 483.65982647 283.02138749 472.37248585 251 457 C250.06913574 456.55575684 249.13827148 456.11151367 248.17919922 455.65380859 C227.89865979 445.91607635 208.46678098 434.8601383 190 422 C189.41847168 421.59716797 188.83694336 421.19433594 188.23779297 420.77929688 C170.65725361 408.55861901 154.19355387 394.97981921 138.52246094 380.40478516 C136.97723083 378.97899073 135.41674203 377.57181439 133.8515625 376.16796875 C125.40361885 368.55505602 117.60584494 360.45069935 110 352 C109.44812012 351.38753418 108.89624023 350.77506836 108.32763672 350.14404297 C99.68299549 340.49295702 91.72494987 330.39664978 84 320 C83.46375 319.28473145 82.9275 318.56946289 82.375 317.83251953 C46.96002013 270.4883953 22.07832667 215.30159941 8 158 C7.70101807 156.78715332 7.70101807 156.78715332 7.39599609 155.54980469 C4.7857536 144.70798445 3.08328447 133.7000306 1.375 122.6875 C1.27040466 122.02346161 1.16580933 121.35942322 1.05804443 120.67526245 C-2.12618085 100.29905523 -3.35288839 80.09145965 -3.31567383 59.47045898 C-3.31251823 55.8335148 -3.33607056 52.19739124 -3.36132812 48.56054688 C-3.40310146 32.19408592 -2.16999562 16.21919595 0 0 Z " fill="#7D4CEE" transform="translate(100,485)"/>
<path d="M0 0 C5.35004418 -0.0951119 10.45922616 0.15048003 15.75 1 C16.91595703 1.18695435 16.91595703 1.18695435 18.10546875 1.37768555 C38.89758449 4.90933299 59.93232831 9.35210178 79.86816406 16.27783203 C83.03906093 17.35198605 86.24178646 18.31699771 89.44311523 19.29589844 C97.51347274 21.77616883 105.26129332 24.61195646 113 28 C114.46229713 28.60587708 115.92595444 29.20847703 117.390625 29.80859375 C127.11598557 33.80662126 136.60621878 38.08317595 145.93701172 42.93164062 C148.08823275 44.04569308 150.24874027 45.14024937 152.41015625 46.234375 C182.59602353 61.65565963 210.36272069 80.88357372 236 103 C236.73992187 103.63808594 237.47984375 104.27617187 238.2421875 104.93359375 C240.17165998 106.61122745 242.08647225 108.30420605 244 110 C244.71494629 110.63010986 245.42989258 111.26021973 246.16650391 111.90942383 C252.22733438 117.29980845 258.04710438 122.89100672 263.76928711 128.63891602 C265.19337492 130.06839717 266.62278044 131.49240511 268.05273438 132.91601562 C273.2449695 138.11548732 278.2459218 143.39800158 283 149 C283.88868174 150.02139155 284.7779651 151.0422601 285.66796875 152.0625 C292.84207935 160.42673437 299.50973477 169.09684869 306 178 C306.49113281 178.67015137 306.98226563 179.34030273 307.48828125 180.03076172 C319.9984785 197.16626607 331.07560833 215.25305858 341 234 C341.42990234 234.80920898 341.85980469 235.61841797 342.30273438 236.45214844 C358.86925525 267.9043534 372.14688796 302.26253889 380 337 C380.23525391 338.01819824 380.47050781 339.03639648 380.71289062 340.08544922 C383.94665956 354.25058515 386.52087862 368.40174415 388.3125 382.8125 C388.47177979 384.0914917 388.63105957 385.3704834 388.79516602 386.68823242 C390.85161282 404.17879403 391.23358116 421.5322095 391.25 439.125 C391.25233643 440.26787476 391.25467285 441.41074951 391.25708008 442.58825684 C391.27093701 460.57014237 390.54408898 478.18235556 388 496 C385.36 495.67 382.72 495.34 380 495 C380.05894943 494.4073082 380.11789886 493.81461639 380.17863464 493.20396423 C381.80722064 476.33534214 382.34729792 459.5661292 382.31567383 442.62573242 C382.3110371 439.91853239 382.31801126 437.21178119 382.33618164 434.50463867 C382.45600715 416.46485403 381.5794803 398.86588828 379 381 C378.85508621 379.98946564 378.71017242 378.97893127 378.56086731 377.93777466 C369.66916725 316.77902194 348.54010562 256.49867451 314 205 C313.5560791 204.33355469 313.1121582 203.66710937 312.65478516 202.98046875 C300.18980891 184.31322984 286.80064239 166.30439908 271.5546875 149.80078125 C269.59183069 147.6488419 267.68346638 145.47321192 265.78515625 143.265625 C261.58317854 138.44934629 257.09125143 133.94466881 252.5625 129.4375 C251.75490234 128.62603516 250.94730469 127.81457031 250.11523438 126.97851562 C245.23971486 122.11085351 240.24260335 117.46832855 235 113 C233.99063647 112.12268216 232.98150353 111.24509893 231.97265625 110.3671875 C198.18635683 81.43341699 160.08625211 57.17345671 119 40 C117.56454834 39.39744385 117.56454834 39.39744385 116.10009766 38.78271484 C79.10074672 23.36088771 40.05646525 11.76543758 0 8 C0 5.36 0 2.72 0 0 Z " fill="#3DB7F2" transform="translate(593,100)"/>
<path d="M0 0 C2 2 2 2 2.1953125 4.8203125 C2.17210937 5.91085937 2.14890625 7.00140625 2.125 8.125 C2.10695313 9.22070312 2.08890625 10.31640625 2.0703125 11.4453125 C2.04710937 12.28835938 2.02390625 13.13140625 2 14 C1.01 13.505 1.01 13.505 0 13 C-5.78785067 12.27544045 -9.25727383 14.40442924 -14.0625 17.25 C-14.84488037 17.69891602 -15.62726074 18.14783203 -16.43334961 18.61035156 C-18.10711625 19.57207748 -19.77769494 20.53936944 -21.4453125 21.51171875 C-24.78311016 23.45621555 -28.13808114 25.36989683 -31.4934082 27.28393555 C-33.22724668 28.27335872 -34.96013597 29.26444684 -36.69213867 30.25708008 C-44.61692589 34.79712081 -52.5840009 39.25982013 -60.55639648 43.71557617 C-70.44166985 49.24182141 -80.30172882 54.81198555 -90.15722656 60.39111328 C-95.89654844 63.63932104 -101.63847067 66.88293027 -107.37988281 70.12744141 C-112.14732226 72.82176458 -116.91417193 75.51711902 -121.6796875 78.21484375 C-123.57809094 79.2891227 -125.47652852 80.3633413 -127.375 81.4375 C-128.31786865 81.97117187 -129.2607373 82.50484375 -130.23217773 83.0546875 C-136.27454915 86.47089816 -142.33172224 89.85946024 -148.39697266 93.23486328 C-152.56444662 95.55869768 -156.72352736 97.89717892 -160.87939453 100.24169922 C-162.99261239 101.43238886 -165.10825176 102.61878927 -167.22607422 103.80126953 C-170.32731581 105.53813478 -173.41491487 107.29713306 -176.5 109.0625 C-177.44431885 109.58650391 -178.3886377 110.11050781 -179.36157227 110.65039062 C-180.22194092 111.14861328 -181.08230957 111.64683594 -181.96875 112.16015625 C-182.72607422 112.58949463 -183.48339844 113.01883301 -184.26367188 113.46118164 C-186.52883586 115.46868004 -186.68509755 117.0515089 -187 120 C-190.90853901 118.69715366 -193.46045282 117.2920056 -196 114 C-196.33642578 111.54125977 -196.33642578 111.54125977 -196 109 C-194.48388672 107.46069336 -194.48388672 107.46069336 -192.3046875 106.15234375 C-191.47807617 105.64687012 -190.65146484 105.14139648 -189.79980469 104.62060547 C-188.87586914 104.08580566 -187.95193359 103.55100586 -187 103 C-186.03223633 102.42781738 -185.06447266 101.85563477 -184.06738281 101.26611328 C-180.76827955 99.3379386 -177.4496898 97.44600298 -174.125 95.5625 C-172.89021985 94.85967764 -171.65552093 94.15671255 -170.42089844 93.45361328 C-160.94469897 88.0657432 -151.41293579 82.78073916 -141.87207031 77.50830078 C-133.48160156 72.85794037 -125.18672994 68.05982921 -116.91699219 63.19873047 C-109.82781309 59.04054167 -102.68162097 54.99616171 -95.5 51 C-87.27796975 46.42433358 -79.1142887 41.76412135 -71 37 C-61.95538274 31.69171679 -52.84954778 26.50808913 -43.6784668 21.42138672 C-37.88234164 18.20015807 -32.12820943 14.91958894 -26.41015625 11.5625 C-24.49982234 10.44729294 -22.58900347 9.33292074 -20.67810059 8.21868896 C-19.44543512 7.49605164 -18.21546755 6.76879021 -16.98840332 6.03668213 C-15.27643385 5.01553522 -13.55439764 4.01132357 -11.83203125 3.0078125 C-10.84952393 2.42660645 -9.8670166 1.84540039 -8.85473633 1.24658203 C-5.62942638 -0.16181894 -3.48323688 -0.3949332 0 0 Z " fill="#3D90FA" transform="translate(800,368)"/>
<path d="M0 0 C-1.19343066 6.96167883 -1.19343066 6.96167883 -3 10 C-4.093125 10.309375 -5.18625 10.61875 -6.3125 10.9375 C-11.14210178 12.32908017 -12.17895068 13.9343701 -15 18 C-16.41933513 22.25800538 -16.72651677 26.22911538 -15 30.4375 C-14.67 30.953125 -14.34 31.46875 -14 32 C-10.71000718 32.41831404 -10.71000718 32.41831404 -7 32 C-3.2497229 28.77710562 -0.7524915 25.2582861 1.8125 21.0625 C5.58198525 15.33768252 9.25962312 10.01752553 16.29296875 8.5078125 C21.63007426 8.20385674 24.8964239 9.45600246 29 13 C29.94875 13.763125 30.8975 14.52625 31.875 15.3125 C35.90225915 20.42151484 34.69020472 27.94153631 34 34 C32.14418038 40.98893774 28.24118739 46.79009951 22.25 50.875 C18.0668237 52.32302257 14.37973856 52.26278431 10 52 C8.72450717 49.44901433 9.13712898 48.66705587 10 46 C10.84765625 43.828125 10.84765625 43.828125 12 42 C15.4375 40.75 15.4375 40.75 19 40 C21.27238472 38.08641287 22.67797068 36.64405865 24 34 C24.07065617 31.95944995 24.08421976 29.91665743 24.0625 27.875 C24.05347656 26.77929688 24.04445313 25.68359375 24.03515625 24.5546875 C24.02355469 23.71164062 24.01195312 22.86859375 24 22 C20.74360341 21.05728998 20.74360341 21.05728998 17 21 C12.3643937 24.9064098 9.22002817 29.80627627 5.92578125 34.828125 C2.74435749 39.47401367 -1.2339421 44.22389138 -6.99975586 45.41210938 C-11.72569005 45.61347478 -15.12196204 44.61346036 -19 42 C-23.70678541 37.33730626 -26.12548482 33.77191798 -26.3125 27 C-26.19240711 17.90896828 -23.24795616 10.18056549 -16.921875 3.59765625 C-11.5647642 -0.85571431 -6.63921009 -1.52148565 0 0 Z " fill="#5B5BBC" transform="translate(942,657)"/>
<path d="M0 0 C1.8871875 0.0309375 1.8871875 0.0309375 3.8125 0.0625 C4.8125 3.0625 4.8125 3.0625 3.8125 6.625 C1.8125 10.0625 1.8125 10.0625 -1.625 11.1875 C-3.3884375 11.620625 -3.3884375 11.620625 -5.1875 12.0625 C-8.72424463 15.78538908 -10.33722238 18.41091087 -10.4375 23.5 C-10.46328125 24.28246094 -10.4890625 25.06492187 -10.515625 25.87109375 C-10.10968525 28.58219136 -9.33271841 29.41114482 -7.1875 31.0625 C-4.81992673 31.89791854 -4.81992673 31.89791854 -2.1875 31.0625 C2.45583787 26.41916213 6.05627171 21.0045315 9.78515625 15.61328125 C12.34901117 12.38746764 15.11539665 9.91105167 18.8125 8.0625 C25.0825835 7.52197556 29.69569068 8.2221655 34.8125 12.0625 C38.82398782 16.10312695 40.15721026 20.17720104 40.4375 25.8125 C40.05958555 34.58233834 36.66477568 42.54519299 30.8125 49.0625 C25.67802542 52.82706225 21.04691366 53.50781526 14.8125 53.0625 C13.81211143 50.46148972 13.84497456 48.79729112 14.1875 46 C15.8125 43.0625 15.8125 43.0625 17.77734375 42.29296875 C18.93943359 41.99326172 18.93943359 41.99326172 20.125 41.6875 C23.89282808 40.64830871 25.67059737 39.63726251 27.875 36.375 C30.17468999 32.03912616 30.53957633 28.90967555 29.8125 24.0625 C27.89662497 21.22416662 26.7059755 20.32113765 23.4375 19.375 C17.60634111 20.90220828 14.52368605 27.46267119 11.3125 32.1875 C8.12295196 36.83391477 4.93621487 40.50064256 -0.1875 43.0625 C-4.83798294 43.62985892 -8.28480577 43.5223631 -12.5 41.375 C-16.96954044 37.52911636 -19.87101961 34.28607887 -20.4609375 28.27734375 C-20.74042894 19.25837011 -19.48623704 12.637226 -13.1796875 5.92578125 C-8.93750644 2.06711841 -5.88222456 -0.09642991 0 0 Z " fill="#5B5BBD" transform="translate(128.1875,362.9375)"/>
<path d="M0 0 C-1.26125168 3.94880235 -2.69375196 7.70799856 -4.41796875 11.4765625 C-4.86720703 12.476875 -5.31644531 13.4771875 -5.77929688 14.5078125 C-6.72302133 16.59683362 -7.67362268 18.68276086 -8.63085938 20.765625 C-9.07623047 21.76335937 -9.52160156 22.76109375 -9.98046875 23.7890625 C-10.39192139 24.69350098 -10.80337402 25.59793945 -11.22729492 26.52978516 C-12.08724484 29.27890782 -12.19486648 30.39628665 -11 33 C-9.42400719 34.58319194 -9.42400719 34.58319194 -7.38671875 35.91796875 C-6.63825684 36.44624268 -5.88979492 36.9745166 -5.11865234 37.51879883 C-4.31637207 38.06947021 -3.5140918 38.6201416 -2.6875 39.1875 C-1.04753763 40.34023663 0.59178301 41.49388677 2.23046875 42.6484375 C3.03919434 43.21401367 3.84791992 43.77958984 4.68115234 44.36230469 C7.87562781 46.6184156 11.00712449 48.95214845 14.125 51.3125 C15.07632813 52.03050781 16.02765625 52.74851563 17.0078125 53.48828125 C17.66523438 53.98714844 18.32265625 54.48601562 19 55 C14.7875383 57.20215702 10.81745657 58.93833812 6 59 C2.69948629 57.67380951 0.13236693 55.65702888 -2.625 53.4375 C-3.3365625 52.89802734 -4.048125 52.35855469 -4.78125 51.80273438 C-6.18681488 50.73568924 -7.58454825 49.65823685 -8.97363281 48.56982422 C-11.91937821 46.28775881 -14.95435494 44.14634042 -18 42 C-20.65595606 44.65595606 -20.7128982 46.28092745 -21 50 C-20.27228741 53.32990964 -20.27228741 53.32990964 -19.0625 56.625 C-17.75110075 60.43917138 -17 62.92905768 -17 67 C-21.95 67.99 -21.95 67.99 -27 69 C-27.51949219 67.44152344 -28.03898437 65.88304687 -28.57421875 64.27734375 C-28.90969727 63.27106934 -29.24517578 62.26479492 -29.59082031 61.22802734 C-30.32623642 59.02145158 -31.06125796 56.81474427 -31.79589844 54.60791016 C-34.13620719 47.5786529 -34.13620719 47.5786529 -36.50390625 40.55859375 C-44 18.39929467 -44 18.39929467 -44 13 C-40.7 12.34 -37.4 11.68 -34 11 C-26.73573236 28.53443913 -26.73573236 28.53443913 -27 36 C-26.34 36 -25.68 36 -25 36 C-24.88084229 35.2994751 -24.76168457 34.5989502 -24.63891602 33.87719727 C-23.40947072 28.3407002 -21.06956259 23.17750886 -18.9375 17.9375 C-18.2578418 16.16149414 -18.2578418 16.16149414 -17.56445312 14.34960938 C-13.60505165 4.6838506 -13.60505165 4.6838506 -8.81640625 2.25390625 C-6.83422852 1.51782227 -6.83422852 1.51782227 -5 1 C-2 0 -2 0 0 0 Z " fill="#5B5BBD" transform="translate(428,94)"/>
<path d="M0 0 C1.84553825 2.76830738 2.748449 4.87083446 3.78759766 7.99047852 C4.12779938 9.00485489 4.4680011 10.01923126 4.81851196 11.06434631 C5.18004364 12.15815109 5.54157532 13.25195587 5.9140625 14.37890625 C6.4758168 16.0634214 6.4758168 16.0634214 7.04891968 17.78196716 C7.83945997 20.15592875 8.62778411 22.53062929 9.4140625 24.90600586 C10.62191609 28.55318797 11.83775364 32.1976358 13.0546875 35.84179688 C13.82078841 38.14567514 14.58642916 40.44970647 15.3515625 42.75390625 C15.71714264 43.84973526 16.08272278 44.94556427 16.4593811 46.07460022 C16.7932785 47.08582443 17.1271759 48.09704865 17.47119141 49.13891602 C17.76716217 50.0314357 18.06313293 50.92395538 18.36807251 51.84352112 C19 54 19 54 19 56 C15.7 56.99 12.4 57.98 9 59 C6.36 51.08 3.72 43.16 1 35 C-1.00523343 38.00785015 -2.1392638 40.72379246 -3.42578125 44.09375 C-3.89306641 45.28871094 -4.36035156 46.48367188 -4.84179688 47.71484375 C-5.58014644 49.60798481 -6.31342824 51.50245162 -7.03295898 53.40283203 C-7.73208206 55.2431321 -8.45368844 57.07484088 -9.17578125 58.90625 C-9.59770752 60.00259766 -10.01963379 61.09894531 -10.4543457 62.22851562 C-12.95931627 66.7201324 -17.20595436 68.48609085 -22 70 C-23.485 69.505 -23.485 69.505 -25 69 C-24.63124756 68.13721436 -24.26249512 67.27442871 -23.88256836 66.38549805 C-22.52006033 63.18503806 -21.16621987 59.98119699 -19.81811523 56.7746582 C-19.23268978 55.38713332 -18.64383838 54.00104877 -18.05151367 52.61645508 C-17.20108459 50.626893 -16.36307853 48.63248992 -15.52734375 46.63671875 C-15.01937256 45.43748779 -14.51140137 44.23825684 -13.98803711 43.00268555 C-12.66866122 39.99916898 -12.66866122 39.99916898 -14 37 C-15.7135255 35.51495306 -15.7135255 35.51495306 -17.8671875 34.14453125 C-19.06541138 33.3397937 -19.06541138 33.3397937 -20.2878418 32.51879883 C-21.141604 31.95572021 -21.99536621 31.3926416 -22.875 30.8125 C-24.60876043 29.64685528 -26.34183612 28.48019143 -28.07421875 27.3125 C-28.91774902 26.74660156 -29.7612793 26.18070313 -30.63037109 25.59765625 C-33.67947392 23.54188365 -36.6931586 21.44739085 -39.6875 19.3125 C-40.53699219 18.71050781 -41.38648438 18.10851562 -42.26171875 17.48828125 C-42.83535156 16.99714844 -43.40898438 16.50601563 -44 16 C-44 15.34 -44 14.68 -44 14 C-39.9604146 11.95725511 -36.54782431 10.95673317 -32 11 C-26.73008267 13.19775071 -22.27958851 17.00462949 -17.85058594 20.54052734 C-15.31368037 22.54126896 -12.66585517 24.36369257 -10 26.1875 C-8.66615076 27.12426583 -7.3325793 28.06142852 -6 29 C-4.31987345 20.92719683 -5.34119231 15.2780199 -8.125 7.57421875 C-9 5 -9 5 -9 3 C-6.03 2.01 -3.06 1.02 0 0 Z " fill="#5B5BBE" transform="translate(687,914)"/>
<path d="M0 0 C2.46800047 1.15173355 4.04783565 2.04783565 6 4 C8.52475676 13.75221978 9.66701871 23.99231117 11.1875 33.9375 C11.36651855 35.08597412 11.54553711 36.23444824 11.72998047 37.41772461 C12.66448904 43.69078437 13.19502394 49.65835945 13 56 C20.42764058 49.75744924 27.19232082 42.90107721 34 36 C36.8605891 37.35937085 38.85927699 38.64520469 41 41 C39.34505714 45.26705487 36.15086959 48.1371993 32.96875 51.296875 C32.37703003 51.89050842 31.78531006 52.48414185 31.17565918 53.09576416 C29.92734419 54.34543718 28.67651177 55.59259992 27.42333984 56.83740234 C25.49992003 58.75007952 23.58743901 60.67323119 21.67578125 62.59765625 C20.46157861 63.81053798 19.24675607 65.02279952 18.03125 66.234375 C17.45725464 66.81241882 16.88325928 67.39046265 16.29187012 67.98602295 C12.22993434 72 12.22993434 72 10 72 C6.43027592 68.34041233 5.35171051 65.40658631 4.5859375 60.40625 C4.38226562 59.1275 4.17859375 57.84875 3.96875 56.53125 C3.77045721 55.18755545 3.57254195 53.84380514 3.375 52.5 C3.17132812 51.200625 2.96765625 49.90125 2.7578125 48.5625 C2.35361839 45.97151209 1.95721264 43.37929645 1.56884766 40.78588867 C0.86604312 36.10846807 0.11801956 31.43857246 -0.63378906 26.76879883 C-1.11504883 23.13015414 -1.14366866 19.66355072 -1 16 C-8.83514917 22.47251453 -15.86788775 29.77773464 -23 37 C-25.8605891 35.64062915 -27.85927699 34.35479531 -30 32 C-28.71977125 29.19030533 -27.39285871 27.1460762 -25.20263672 24.97558594 C-24.64220673 24.41530701 -24.08177673 23.85502808 -23.50436401 23.277771 C-22.90222076 22.68595032 -22.30007751 22.09412964 -21.6796875 21.484375 C-21.06102814 20.86854553 -20.44236877 20.25271606 -19.80496216 19.6182251 C-17.83296186 17.65739664 -15.85411263 15.70364699 -13.875 13.75 C-12.53469836 12.41973201 -11.19484917 11.089008 -9.85546875 9.7578125 C-6.57553411 6.4998985 -3.28944058 3.24831467 0 0 Z " fill="#5B5BBD" transform="translate(837,810)"/>
<path d="M0 0 C2.46800047 1.15173355 4.04783565 2.04783565 6 4 C8.16201863 12.63577956 8.79521738 21.78251904 9.85986328 30.61987305 C10.12679078 32.82730939 10.40109909 35.03375113 10.67578125 37.24023438 C10.84940363 38.66661253 11.02259614 40.0930431 11.1953125 41.51953125 C11.35016113 42.78901611 11.50500977 44.05850098 11.66455078 45.36645508 C11.99396226 48.93459998 12.0593897 52.41903175 12 56 C12.66 56 13.32 56 14 56 C14 55.34 14 54.68 14 54 C15.328125 52.6953125 15.328125 52.6953125 17.25 51.125 C23.17833782 46.10297282 28.55174107 40.52998282 34 35 C36.8605891 36.35937085 38.85927699 37.64520469 41 40 C39.64941886 43.01388073 38.14395225 45.1034677 35.8046875 47.42578125 C35.17498047 48.05427979 34.54527344 48.68277832 33.89648438 49.33032227 C33.22939453 49.98444092 32.56230469 50.63855957 31.875 51.3125 C31.19501953 51.98531006 30.51503906 52.65812012 29.81445312 53.35131836 C25.3512273 57.74247056 20.81489646 61.99488158 16 66 C14.66555733 67.14454121 13.33218941 68.2903369 12 69.4375 C11.01 70.283125 10.02 71.12875 9 72 C6.65370004 70.35759002 5.23350725 68.82616161 4.44506836 66.03662109 C2.6451311 55.47684889 1.40968742 44.83873233 0.10180664 34.20922852 C-0.22208101 31.5857149 -0.55031611 28.96277185 -0.87890625 26.33984375 C-0.97683975 25.53159653 -1.07477325 24.7233493 -1.17567444 23.89060974 C-1.62455128 19.81825189 -1.62455128 19.81825189 -3 16 C-3.7734375 16.78503906 -4.546875 17.57007813 -5.34375 18.37890625 C-11.04906626 24.14292673 -16.76924293 29.79548527 -23 35 C-25.8605891 33.64062915 -27.85927699 32.35479531 -30 30 C-28.40382726 25.77365581 -25.22930523 23.23071405 -21.9375 20.3125 C-20.75639798 19.24635662 -19.57671764 18.17863624 -18.3984375 17.109375 C-17.81932617 16.58408203 -17.24021484 16.05878906 -16.64355469 15.51757812 C-14.38312524 13.43040798 -12.21929195 11.25609727 -10.0625 9.0625 C-6.85731458 5.81000557 -3.57380826 2.84071939 0 0 Z " fill="#5B5BBD" transform="translate(239,193)"/>
<path d="M0 0 C2.79007312 3.3512256 4.44478709 7.00269644 6.16015625 10.96875 C15.54708914 32.2509043 15.54708914 32.2509043 33.625 46.20703125 C34.73875 46.79871094 35.8525 47.39039063 37 48 C37 51.99904969 35.27413033 53.80200422 33 57 C28.83806392 56.61886499 26.54099962 55.02919906 23.31825256 52.46310425 C13.38801715 44.74034928 3.78109176 44.26435196 -8.4375 43.875 C-10.34461411 43.78023657 -12.25152576 43.68130336 -14.15820312 43.578125 C-18.77121926 43.33741296 -23.38327088 43.15281466 -28 43 C-27.70222656 42.40703125 -27.40445313 41.8140625 -27.09765625 41.203125 C-26.19575443 39.39290213 -25.31381951 37.57274459 -24.4375 35.75 C-22 33 -22 33 -20.08984375 32.58203125 C-17.68900644 32.56085985 -15.38624983 32.73444555 -13 33 C-12.17757812 33.08121094 -11.35515625 33.16242188 -10.5078125 33.24609375 C-8.91999163 33.40685443 -7.33361428 33.58329821 -5.75 33.78125 C-1.83274455 34.09284987 2.07256629 34.03850425 6 34 C5.50802124 33.03175293 5.50802124 33.03175293 5.00610352 32.04394531 C3.52069839 29.1147401 2.04154105 26.1824234 0.5625 23.25 C-0.2119043 21.72632813 -0.2119043 21.72632813 -1.00195312 20.171875 C-1.49501953 19.1921875 -1.98808594 18.2125 -2.49609375 17.203125 C-2.95169678 16.30239258 -3.4072998 15.40166016 -3.87670898 14.47363281 C-4.87532759 12.27454485 -5.647045 10.38566666 -6 8 C-4.78515625 5.859375 -4.78515625 5.859375 -3.0625 3.75 C-2.49660156 3.04359375 -1.93070313 2.3371875 -1.34765625 1.609375 C-0.90292969 1.07828125 -0.45820313 0.5471875 0 0 Z " fill="#5B5BBD" transform="translate(171,266)"/>
<path d="M0 0 C-0.01123901 0.90371338 -0.01123901 0.90371338 -0.02270508 1.82568359 C-0.00323034 17.61220258 3.05691618 26.99282473 13.28271484 38.94970703 C15.97843638 42.16817014 18.38982621 45.57427146 20.8125 49 C21.23853516 49.58209229 21.66457031 50.16418457 22.10351562 50.76391602 C25 54.76598896 25 54.76598896 25 57 C19.06 57.495 19.06 57.495 13 58 C12.5153125 57.26136719 12.030625 56.52273438 11.53125 55.76171875 C10.8609375 54.74722656 10.190625 53.73273437 9.5 52.6875 C8.8503125 51.70136719 8.200625 50.71523438 7.53125 49.69921875 C4.1662913 44.69721351 0.56389386 39.86099817 -3 35 C-3.48412354 36.1281311 -3.48412354 36.1281311 -3.97802734 37.27905273 C-5.43691147 40.66816489 -6.90580635 44.05284512 -8.375 47.4375 C-8.88289062 48.62150391 -9.39078125 49.80550781 -9.9140625 51.02539062 C-10.40390625 52.15009766 -10.89375 53.27480469 -11.3984375 54.43359375 C-11.84880371 55.47572021 -12.29916992 56.51784668 -12.76318359 57.59155273 C-14 60 -14 60 -16 61 C-17.70702735 61.06996014 -19.41668003 61.08440154 -21.125 61.0625 C-22.41639893 61.0459436 -22.41639893 61.0459436 -23.73388672 61.02905273 C-24.4817041 61.01946533 -25.22952148 61.00987793 -26 61 C-23.97245397 55.53206839 -21.70766434 50.32139597 -18.94921875 45.1796875 C-10.91062467 29.85596612 -8.29500908 18.1612486 -11 1 C-7.26616906 0.30533378 -3.79269127 -0.05168915 0 0 Z " fill="#5B5BBD" transform="translate(583,939)"/>
<path d="M0 0 C-1.32103149 4.34903654 -3.03240072 8.09328324 -5.2578125 12.05078125 C-14.14723282 28.41952388 -18.10575075 40.96468171 -16 60 C-19.63 60 -23.26 60 -27 60 C-26.90074219 58.69933594 -26.80148437 57.39867187 -26.69921875 56.05859375 C-26.31397954 37.1141955 -35.83233688 24.82915654 -46.84959412 10.36541748 C-50 6.20227849 -50 6.20227849 -50 4 C-48.4375 3.5 -48.4375 3.5 -46 3 C-44.906875 2.773125 -43.81375 2.54625 -42.6875 2.3125 C-38.3325581 3.12443832 -38.01120169 3.75584804 -35.5625 7.25 C-34.36014016 9.15737993 -33.173913 11.07498165 -32 13 C-30.53938515 15.22113283 -29.04921307 17.42110492 -27.5625 19.625 C-26.37383403 21.41589332 -25.18590687 23.20727844 -24 25 C-21.84115038 22.28854644 -20.28768005 19.7012295 -18.9140625 16.5234375 C-18.54023437 15.688125 -18.16640625 14.8528125 -17.78125 13.9921875 C-17.00879342 12.2437216 -16.24579041 10.49104936 -15.4921875 8.734375 C-12.62215323 2.38491563 -12.62215323 2.38491563 -9.44921875 0.421875 C-6.26633052 -0.12637369 -3.22165775 -0.12633952 0 0 Z " fill="#5B5BBD" transform="translate(533,80)"/>
<path d="M0 0 C1.37207031 1.55053711 1.37207031 1.55053711 2.578125 3.52734375 C3.01640625 4.23697266 3.4546875 4.94660156 3.90625 5.67773438 C4.57140625 6.79631836 4.57140625 6.79631836 5.25 7.9375 C5.70890625 8.67935547 6.1678125 9.42121094 6.640625 10.18554688 C10 15.69952102 10 15.69952102 10 18 C10.81082031 18.23203125 11.62164063 18.4640625 12.45703125 18.703125 C16.81655159 20.29889209 20.66406989 22.45368431 24.6875 24.75 C26.28236981 25.64876102 27.8774217 26.54719903 29.47265625 27.4453125 C30.24367676 27.88133789 31.01469727 28.31736328 31.80908203 28.76660156 C36.17916938 31.22678446 40.59077178 33.61085872 45 36 C43.2958054 39.75856617 41.85139376 41.29822136 38 43 C34.06620178 42.56967018 31.13475507 41.18597504 27.69921875 39.27734375 C26.72275391 38.73916016 25.74628906 38.20097656 24.74023438 37.64648438 C23.73283203 37.08251953 22.72542969 36.51855469 21.6875 35.9375 C20.66076172 35.36966797 19.63402344 34.80183594 18.57617188 34.21679688 C16.0473982 32.81715005 13.52222964 31.41139489 11 30 C11.0721875 31.01578125 11.144375 32.0315625 11.21875 33.078125 C11.46860374 36.67970743 11.67117742 40.28281167 11.86669922 43.88769531 C11.98544513 45.76936137 12.16252266 47.64713974 12.34765625 49.5234375 C12.86267924 56.9584966 12.86267924 56.9584966 10.28515625 60.0703125 C5.23139535 64 5.23139535 64 2 64 C1.97494385 63.08299316 1.9498877 62.16598633 1.92407227 61.22119141 C1.82813712 57.77318225 1.72896017 54.32529633 1.62768555 50.87744141 C1.5847477 49.39375369 1.54304988 47.91002949 1.50268555 46.42626953 C1.37130793 41.61557793 1.19606917 36.80849572 1 32 C0.97929443 31.02514648 0.95858887 30.05029297 0.93725586 29.04589844 C0.61118037 22.45292012 -1.75236026 18.29899584 -5.5625 13 C-6.58810198 11.52323482 -7.61041793 10.04418026 -8.62890625 8.5625 C-9.08338135 7.92441406 -9.53785645 7.28632812 -10.00610352 6.62890625 C-11 5 -11 5 -11 3 C-3.93586245 -1.48301037 -3.93586245 -1.48301037 0 0 Z " fill="#5B5BBE" transform="translate(757,881)"/>
<path d="M0 0 C5.05551887 1.73902247 9.18320616 4.70709133 13.4765625 7.81054688 C18.16524834 10.9936436 22.36251362 11.79319674 28 12 C29.83860596 12.0786731 29.83860596 12.0786731 31.71435547 12.15893555 C35.996215 12.32785634 40.27893351 12.44665125 44.5625 12.5625 C46.06316078 12.60578362 47.56381197 12.6494007 49.06445312 12.69335938 C52.70953299 12.79941797 56.35472182 12.90096257 60 13 C59.08836059 17.07527158 57.79755138 19.8124054 55 23 C52.0362967 23.49918308 49.92954908 23.62288145 47 23.4375 C46.30777344 23.41880859 45.61554687 23.40011719 44.90234375 23.38085938 C38.58838288 23.16886613 32.29122048 22.55420756 26 22 C26.39904541 22.70084717 26.79809082 23.40169434 27.20922852 24.1237793 C29.00864196 27.30347099 30.78569733 30.49512285 32.5625 33.6875 C33.19091797 34.79029297 33.81933594 35.89308594 34.46679688 37.02929688 C35.05654297 38.09599609 35.64628906 39.16269531 36.25390625 40.26171875 C36.80377197 41.24100342 37.3536377 42.22028809 37.92016602 43.22924805 C39.16448719 46.42205858 39.0934742 47.7922756 38 51 C36.7295036 53.04049422 35.40568804 55.05017465 34 57 C30.75689432 54.27223027 29.09643911 50.70337655 27.20703125 46.99609375 C26.85613937 46.31700455 26.5052475 45.63791534 26.14372253 44.93824768 C25.40563372 43.50655802 24.67036536 42.07341123 23.93774414 40.63891602 C22.81291802 38.43831782 21.67767851 36.24333151 20.54101562 34.04882812 C19.82489667 32.65657087 19.10938082 31.26400319 18.39453125 29.87109375 C17.88367729 28.88356361 17.88367729 28.88356361 17.36250305 27.87608337 C15 23.23084473 15 23.23084473 15 21 C14.00419922 20.66355469 14.00419922 20.66355469 12.98828125 20.3203125 C9.07498719 18.59130153 5.71176843 16.28296905 2.1875 13.875 C1.49462891 13.40707031 0.80175781 12.93914063 0.08789062 12.45703125 C-1.61091105 11.30887563 -3.30584864 10.15500633 -5 9 C-4.3566152 7.686298 -3.71021785 6.37407102 -3.0625 5.0625 C-2.70285156 4.33160156 -2.34320312 3.60070312 -1.97265625 2.84765625 C-1 1 -1 1 0 0 Z " fill="#5B5BBD" transform="translate(882,750)"/>
<path d="M0 0 C-0.02731201 1.14251221 -0.05462402 2.28502441 -0.08276367 3.4621582 C-1.41156209 33.80092928 -1.41156209 33.80092928 12 60 C9.54774487 62.55234718 7.13079636 64.31418658 4 66 C3.34 66 2.68 66 2 66 C1.09643555 64.44628906 1.09643555 64.44628906 0.13671875 62.265625 C-6.4061696 48.60338846 -13.96063424 42.7378317 -27.453125 36.25048828 C-31.17560744 34.42278937 -34.737154 32.34696469 -38.3125 30.25 C-39.42238281 29.61578125 -40.53226562 28.9815625 -41.67578125 28.328125 C-42.44277344 27.88984375 -43.20976562 27.4515625 -44 27 C-40.99595152 23.64933054 -38.23935226 21.56875985 -34 20 C-31.11572266 20.94458008 -31.11572266 20.94458008 -28.1640625 22.76953125 C-26.56884766 23.73149414 -26.56884766 23.73149414 -24.94140625 24.71289062 C-23.84699219 25.40576172 -22.75257813 26.09863281 -21.625 26.8125 C-20.50738281 27.49376953 -19.38976562 28.17503906 -18.23828125 28.87695312 C-15.4782619 30.56363162 -12.73391036 32.27143657 -10 34 C-10.04713135 33.18321777 -10.0942627 32.36643555 -10.14282227 31.52490234 C-10.33038953 27.80890734 -10.44708567 24.09390624 -10.5625 20.375 C-10.63791016 19.08980469 -10.71332031 17.80460937 -10.79101562 16.48046875 C-11.00916604 7.12423992 -11.00916604 7.12423992 -7.99169922 3.76269531 C-2.40959362 0 -2.40959362 0 0 0 Z " fill="#5B5BBE" transform="translate(330,131)"/>
</svg>
