<?xml version="1.0" encoding="UTF-8"?>
<svg version="1.1" xmlns="http://www.w3.org/2000/svg" width="1600" height="476">
<path d="M0 0 C3.09462875 1.4833464 5.8682285 3.39310959 8.69921875 5.32421875 C9.55001007 5.88874756 10.40080139 6.45327637 11.27737427 7.03491211 C14.08976723 8.9059744 16.88848056 10.79650221 19.6875 12.6875 C21.66355236 14.00804672 23.6403714 15.32744683 25.61791992 16.64575195 C30.75161791 20.07367307 35.87349891 23.51879077 40.99108887 26.97070312 C43.87575952 28.91620862 46.76221784 30.85902631 49.64941406 32.80078125 C56.81226951 37.61904615 63.97303022 42.4403265 71.12109375 47.28051758 C80.08218839 53.34722221 89.06142734 59.38340088 98.0859375 65.35546875 C99.43279884 66.24793556 99.43279884 66.24793556 100.80686951 67.15843201 C105.07275046 69.98473217 109.34214273 72.80540388 113.6184082 75.6159668 C133.66718874 88.84815671 133.66718874 88.84815671 136.9375 96.25 C137.31777344 97.08015625 137.69804687 97.9103125 138.08984375 98.765625 C141.20299657 106.40821476 141.28325133 115.51449188 138.5 123.3125 C133.18022054 134.4422775 124.16739479 139.72068477 113.75585938 145.46728516 C110.66984608 147.18362033 107.60763579 148.93825149 104.546875 150.69921875 C92.13306791 157.84096723 79.66378979 164.87762885 67.15429688 171.85058594 C60.05444007 175.81974398 53.01506029 179.88306227 46 184 C36.93804322 189.31820259 27.80807762 194.49870852 18.63012695 199.61376953 C10.78902812 203.98751785 2.97984057 208.41512992 -4.8125 212.875 C-5.68468674 213.37404846 -5.68468674 213.37404846 -6.57449341 213.88317871 C-10.7172242 216.25389051 -14.85876039 218.62668456 -19 221 C-23.72834018 223.70977867 -28.45729928 226.4184702 -33.1875 229.125 C-33.76823273 229.45737671 -34.34896545 229.78975342 -34.94729614 230.13220215 C-44.20488511 235.42851133 -53.50514217 240.6454881 -62.82202148 245.83666992 C-70.18296143 249.95067306 -77.47604642 254.17187136 -84.75 258.4375 C-87.65320564 260.13327261 -90.55731121 261.82747925 -93.46240234 263.52001953 C-95.03989831 264.44004845 -96.61600852 265.36246299 -98.18994141 266.28857422 C-99.97200814 267.33252788 -101.7666423 268.35495283 -103.5625 269.375 C-104.47128906 269.89835937 -105.38007812 270.42171875 -106.31640625 270.9609375 C-109.77637771 272.30060622 -112.3235279 272.45473284 -116 272 C-118.75746886 269.17166289 -119.37692249 267.13262856 -119.38818359 263.23828125 C-119.39764008 262.29629883 -119.40709656 261.35431641 -119.4168396 260.38378906 C-119.41076691 259.37026367 -119.40469421 258.35673828 -119.3984375 257.3125 C-119.40130768 256.25901367 -119.40417786 255.20552734 -119.40713501 254.12011719 C-119.40917671 251.8875271 -119.40363949 249.65491916 -119.39111328 247.42236328 C-119.3751896 244.04027082 -119.39089233 240.6593969 -119.41015625 237.27734375 C-119.40817134 235.1015599 -119.40432255 232.9257768 -119.3984375 230.75 C-119.40451019 229.75266846 -119.41058289 228.75533691 -119.4168396 227.7277832 C-119.27904837 213.63463115 -115.22152772 200.53965718 -105.37695312 190.2175293 C-98.25839268 183.57641544 -88.88746301 179.13550935 -80.45944214 174.37591553 C-77.39105442 172.64267783 -74.32804365 170.90000744 -71.265625 169.15625 C-70.65142197 168.80658173 -70.03721893 168.45691345 -69.40440369 168.09664917 C-62.67734194 164.25855927 -56.01380916 160.31420143 -49.36791992 156.33740234 C-43.32645865 152.73489915 -37.18891382 149.34181627 -31 146 C-20.98729865 140.53565865 -11.08494208 134.90329489 -1.25 129.125 C6.43079144 124.6139721 14.15913586 120.2266383 22 116 C30.91431324 111.1942119 39.67641373 106.15991489 48.40820312 101.03076172 C56.54869337 96.24990284 64.74880121 91.5866958 73 87 C73.70792735 84.26291516 73.70792735 84.26291516 73 81 C70.52472022 78.47507938 67.56286464 76.73623992 64.5703125 74.87890625 C63.68551712 74.30587265 62.80072174 73.73283905 61.88911438 73.1424408 C58.97954847 71.26335767 56.05246719 69.41354373 53.125 67.5625 C51.11049241 66.26675768 49.09756224 64.9685598 47.08618164 63.66796875 C44.02522751 61.68908 40.96341764 59.71170494 37.89656067 57.74197388 C28.64777965 51.80040226 19.5215723 45.68964264 10.4375 39.5 C9.74418579 39.02766937 9.05087158 38.55533875 8.33654785 38.06869507 C7.65475464 37.60411896 6.97296143 37.13954285 6.27050781 36.66088867 C5.6044754 36.20709335 4.93844299 35.75329803 4.25222778 35.28575134 C2.96050262 34.40551971 1.66905088 33.52488666 0.37789917 32.64381409 C-3.49248397 30.00781266 -7.39177383 27.42214531 -11.31640625 24.8671875 C-12.23156006 24.26455078 -13.14671387 23.66191406 -14.08959961 23.04101562 C-15.71015108 21.97614868 -17.33918708 20.92401245 -18.97875977 19.88867188 C-23.81791478 16.68206507 -23.81791478 16.68206507 -24.70703125 13.3515625 C-23.7900054 10.30156493 -22.77181286 9.63021902 -20.0625 8 C-19.24265625 7.50242188 -18.4228125 7.00484375 -17.578125 6.4921875 C-16.72734375 5.99976563 -15.8765625 5.50734375 -15 5 C-14.21109375 4.50757813 -13.4221875 4.01515625 -12.609375 3.5078125 C-8.12780722 0.80972577 -5.35782761 -0.61064324 0 0 Z " fill="#428FF2" transform="translate(156,191)"/>
<path d="M0 0 C2.24162111 1.6233368 2.91753963 2.5106149 3.38095093 5.26086426 C3.38333771 6.14479858 3.38572449 7.02873291 3.38818359 7.93945312 C3.39764008 8.94480103 3.40709656 9.95014893 3.4168396 10.98596191 C3.40773056 12.61712952 3.40773056 12.61712952 3.3984375 14.28125 C3.40130768 15.40511108 3.40417786 16.52897217 3.40713501 17.68688965 C3.40917886 20.07088727 3.40362669 22.45490153 3.39111328 24.83886719 C3.37518453 28.45807363 3.39088958 32.07614276 3.41015625 35.6953125 C3.40817153 38.01562744 3.40432315 40.33594168 3.3984375 42.65625 C3.40451019 43.72750122 3.41058289 44.79875244 3.4168396 45.90246582 C3.29243349 59.46021492 -0.69229273 71.66395717 -10.0625 81.6875 C-15.48166669 86.74182953 -21.56835252 90.38548518 -28 94 C-28.87221191 94.49097168 -29.74442383 94.98194336 -30.64306641 95.48779297 C-34.78504376 97.81439486 -38.93062808 100.1343468 -43.08203125 102.4440918 C-50.44066104 106.54264467 -57.73757967 110.73356038 -65 115 C-74.06169286 120.31864258 -83.19193292 125.4987144 -92.36987305 130.61376953 C-100.21097188 134.98751785 -108.02015943 139.41512992 -115.8125 143.875 C-116.68468674 144.37404846 -116.68468674 144.37404846 -117.57449341 144.88317871 C-121.7172242 147.25389051 -125.85876039 149.62668456 -130 152 C-134.72834027 154.70977872 -139.45739463 157.41830349 -144.1875 160.125 C-144.76225067 160.45405334 -145.33700134 160.78310669 -145.9291687 161.12213135 C-152.30439904 164.77073438 -158.69093877 168.39756883 -165.10546875 171.9765625 C-166.81343628 172.92958252 -166.81343628 172.92958252 -168.5559082 173.90185547 C-170.70537682 175.09872766 -172.85617348 176.29321922 -175.00854492 177.48486328 C-177.68293969 178.97215311 -180.34349381 180.48106517 -183 182 C-183.66676758 182.36287109 -184.33353516 182.72574219 -185.02050781 183.09960938 C-187.5170103 184.55820733 -188.83568097 185.41623169 -189.63525391 188.25683594 C-188.58027637 192.81245762 -184.92130553 194.37444463 -181.140625 196.8125 C-179.88719551 197.64997269 -179.88719551 197.64997269 -178.60844421 198.50436401 C-175.83292469 200.35284735 -173.04180671 202.17622806 -170.25 204 C-168.31613972 205.2812083 -166.38329123 206.563945 -164.45141602 207.84814453 C-159.35473388 211.22981523 -154.2443333 214.59013338 -149.12994385 217.94494629 C-143.98011384 221.32621374 -138.84016828 224.72243995 -133.69921875 228.1171875 C-127.02951063 232.52022827 -120.35465878 236.91517394 -113.67111206 241.29718018 C-110.4553803 243.40881222 -107.24562261 245.52935497 -104.03826904 247.65368652 C-102.76015799 248.49790193 -101.479774 249.33869696 -100.19610596 250.17443848 C-98.72940445 251.12936349 -97.2723189 252.09901776 -95.81640625 253.0703125 C-95.0797876 253.55516113 -94.34316895 254.04000977 -93.58422852 254.53955078 C-91.66755737 256.30646815 -91.22182319 257.41801707 -91 260 C-93.82996541 263.70521244 -97.77139687 265.93486456 -101.75 268.25 C-102.33265625 268.61351562 -102.9153125 268.97703125 -103.515625 269.3515625 C-104.1034375 269.69445312 -104.69125 270.03734375 -105.296875 270.390625 C-105.81604492 270.70032227 -106.33521484 271.01001953 -106.87011719 271.32910156 C-111.18883664 272.68946849 -115.0255976 272.90368923 -119.14321899 271.01904297 C-121.5111296 269.57785825 -123.76760047 268.03522257 -126.02734375 266.4296875 C-126.88022476 265.84615509 -127.73310577 265.26262268 -128.61183167 264.66140747 C-131.39896102 262.74927652 -134.16775581 260.8122062 -136.9375 258.875 C-138.88533415 257.53314415 -140.83456911 256.19331957 -142.78515625 254.85546875 C-146.70656462 252.16425601 -150.6225176 249.46539297 -154.53466797 246.76074219 C-161.16233938 242.18819946 -167.85703893 237.72057973 -174.5715332 233.27694702 C-177.83428908 231.11649168 -181.09125417 228.94736031 -184.34765625 226.77734375 C-185.01479645 226.33278336 -185.68193665 225.88822296 -186.36929321 225.43019104 C-196.24772111 218.84094606 -206.09170165 212.20035037 -215.9375 205.5625 C-216.86868652 204.93512939 -217.79987305 204.30775879 -218.75927734 203.66137695 C-252.67953914 180.80416311 -252.67953914 180.80416311 -256 167 C-257.31735574 157.48277689 -254.74436822 148.82795779 -249.5625 140.8125 C-245.13002183 135.42399713 -238.99095341 132.35542475 -233 129 C-231.34072787 128.05672442 -229.68190365 127.11266069 -228.0234375 126.16796875 C-224.164272 123.9759517 -220.29881741 121.79547059 -216.4296875 119.62109375 C-209.62563219 115.7944695 -202.84091944 111.93428798 -196.0625 108.0625 C-195.17831894 107.55777161 -195.17831894 107.55777161 -194.27627563 107.04284668 C-186.02746548 102.33213913 -177.81650621 97.55975922 -169.625 92.75 C-161.26428653 87.8438654 -152.81695419 83.13735716 -144.28540039 78.53588867 C-136.43452626 74.28254107 -128.7281476 69.80218329 -121.02905273 65.28125 C-108.39836848 57.86999979 -95.63505239 50.69614948 -82.84375 43.56640625 C-71.55864375 37.27304317 -60.33844487 30.8921235 -49.19995117 24.3425293 C-40.18739877 19.06350482 -31.06414084 13.99509688 -21.90673828 8.97290039 C-15.54489957 5.50924889 -15.54489957 5.50924889 -9.45703125 1.59765625 C-6.13065907 -0.56527892 -3.88421111 -0.51300901 0 0 Z " fill="#428FF2" transform="translate(293,15)"/>
<path d="M0 0 C13.86 0 27.72 0 42 0 C42.33 22.77 42.66 45.54 43 69 C47.40085937 64.0190625 51.80171875 59.038125 56.3359375 53.90625 C62.27461642 47.36642016 68.29705279 40.91048647 74.375 34.5 C75.54009409 33.27070456 75.54009409 33.27070456 76.72872543 32.01657486 C110.4757971 -3.37205901 110.4757971 -3.37205901 131.28497314 -4.83261108 C141.76128941 -4.89016104 152.02577788 -3.12500078 162 0 C158.17676768 4.56606502 154.22660108 8.92286944 150.0078125 13.125 C149.18336136 13.95088623 149.18336136 13.95088623 148.34225464 14.79345703 C147.18886965 15.94751688 146.03424355 17.10033761 144.87841797 18.25195312 C143.13263921 19.99238419 141.39225463 21.73808003 139.65234375 23.484375 C138.52115368 24.61490396 137.38965329 25.74512252 136.2578125 26.875 C135.74920685 27.38562988 135.2406012 27.89625977 134.71658325 28.42236328 C131.95509675 31.16646028 129.12646425 33.78490149 126.17944336 36.3293457 C118.82211198 42.70805488 112.01201482 49.68525338 105.10620117 56.54370117 C103.31624148 58.31695829 101.52091474 60.08481301 99.72045898 61.84741211 C97.11276249 64.40069781 94.521577 66.96972285 91.93359375 69.54296875 C90.71669106 70.72586739 90.71669106 70.72586739 89.47520447 71.93266296 C88.7401619 72.67055557 88.00511932 73.40844818 87.24780273 74.16870117 C86.59464584 74.81377121 85.94148895 75.45884125 85.26853943 76.12345886 C83.76175745 77.92044282 83.76175745 77.92044282 84.21653748 80.13294983 C85.14308797 82.3409894 86.2525097 83.66771795 87.9140625 85.390625 C88.80315308 86.32515503 88.80315308 86.32515503 89.71020508 87.27856445 C90.3420874 87.92913818 90.97396973 88.57971191 91.625 89.25 C92.91361504 90.60205057 94.20138592 91.95490624 95.48828125 93.30859375 C96.10268066 93.9516748 96.71708008 94.59475586 97.35009766 95.25732422 C99.76673177 97.80984484 102.07010689 100.45042639 104.36328125 103.11328125 C106.37873772 105.43658787 108.43848462 107.71748465 110.5 110 C113.18983431 112.98062721 115.86310364 115.97245233 118.5 119 C122.61081039 123.71701284 126.80667845 128.35638889 131 133 C135.76786975 138.27985576 140.51512218 143.57291806 145.1875 148.9375 C147.27211164 151.30964429 149.38428644 153.65556065 151.5 156 C154.7970138 159.65465597 158.0667644 163.32956226 161.29296875 167.046875 C162.51292525 168.44270624 163.7462566 169.82689337 164.98828125 171.203125 C165.63152344 171.91984375 166.27476562 172.6365625 166.9375 173.375 C167.52402344 174.02210938 168.11054687 174.66921875 168.71484375 175.3359375 C170 177 170 177 170 179 C162.63600738 179.28027938 155.27340108 179.47209079 147.90527344 179.60424805 C145.40247207 179.65936657 142.90002172 179.73428736 140.3984375 179.82983398 C118.45309167 180.64666911 118.45309167 180.64666911 113.23144531 176.69580078 C110.68759095 173.91202217 108.8699097 171.26211123 107 168 C105.52681846 166.14504791 104.02966861 164.30865283 102.5 162.5 C101.7678125 161.5925 101.035625 160.685 100.28125 159.75 C97.93281032 156.91900422 95.49090098 154.20616402 93 151.5 C88.88621091 147.0301488 85.02912703 142.40955107 81.21484375 137.68359375 C79.04367173 135.05291443 76.79758643 132.52057576 74.5 130 C71.40444804 126.60401318 68.44848793 123.13828469 65.5625 119.5625 C61.76631288 114.86686785 57.7780255 110.4038734 53.65234375 105.99609375 C49.93953628 101.80209769 46.49910329 97.37387911 43 93 C42.67 121.38 42.34 149.76 42 179 C28.14 179 14.28 179 0 179 C0 119.93 0 60.86 0 0 Z " fill="#FAFAFA" transform="translate(1157,150)"/>
<path d="M0 0 C3.6461683 2.99758624 6.95023007 6.26585004 10.21826172 9.66748047 C10.83185547 10.27333984 11.44544922 10.87919922 12.07763672 11.50341797 C19.81880889 19.68352259 25.21826172 32.37676246 25.21826172 43.66748047 C13.33826172 43.66748047 1.45826172 43.66748047 -10.78173828 43.66748047 C-12.43173828 40.36748047 -14.08173828 37.06748047 -15.78173828 33.66748047 C-21.77542735 26.20594917 -28.97499565 22.35559758 -38.53955078 21.22216797 C-47.89957609 20.93853084 -54.86264988 22.52763681 -62.71923828 27.54248047 C-66.39605974 31.33072076 -67.95203954 34.86788515 -68.21923828 40.10498047 C-67.9957819 44.69739438 -67.08766618 48.35358648 -63.78173828 51.66748047 C-53.74845433 58.63550405 -41.45835266 60.4221716 -29.70361328 62.62451172 C-8.871996 66.54814054 10.45270805 73.26836211 23.09326172 91.47998047 C30.24789938 104.2870365 31.56819929 119.55908762 27.59326172 133.60498047 C21.99127673 149.05405326 12.89702768 160.04247006 -1.78173828 167.66748047 C-2.69246094 168.2146875 -2.69246094 168.2146875 -3.62158203 168.77294922 C-21.01687105 178.70767665 -45.03352251 178.72565012 -63.78173828 173.66748047 C-81.685757 168.31234027 -97.0552412 157.32630977 -106.16992188 140.83422852 C-110.19425275 133.22434065 -111.7072586 127.26331792 -112.78173828 118.66748047 C-100.90173828 118.66748047 -89.02173828 118.66748047 -76.78173828 118.66748047 C-75.13173828 121.63748047 -73.48173828 124.60748047 -71.78173828 127.66748047 C-66.12175455 135.6220522 -58.35309613 140.02811746 -48.78173828 141.66748047 C-37.86687497 142.58544846 -27.43474989 142.09695488 -18.28173828 135.35498047 C-14.27370518 131.04634488 -12.64193219 126.93582938 -12.40673828 121.10498047 C-12.65182487 115.32093686 -14.63255615 111.53246137 -18.78173828 107.54248047 C-27.19273504 100.95128021 -38.24146554 99.63280753 -48.46923828 97.79248047 C-68.44589753 94.02941552 -88.84184465 88.31542226 -101.63720703 71.18310547 C-107.16883443 62.38713499 -109.33355104 54.20703551 -109.21923828 43.85498047 C-109.21093994 42.88520264 -109.2026416 41.9154248 -109.1940918 40.91625977 C-108.86402934 26.9021132 -103.63495773 15.65041923 -94.03173828 5.41748047 C-69.98851156 -17.10577215 -26.50930632 -19.82567743 0 0 Z " fill="#FBFBFB" transform="translate(564.78173828125,157.33251953125)"/>
<path d="M0 0 C46.53 0 93.06 0 141 0 C141 29.51900289 141 29.51900289 130.60742188 40.29003906 C128.13501076 42.92016777 126.02660557 45.79457403 123.875 48.6875 C123.06218946 49.74525604 122.24709993 50.80126492 121.4296875 51.85546875 C118.94843865 55.06673134 116.47347444 58.28275016 114 61.5 C113.16669812 62.58335752 112.33336481 63.66669088 111.5 64.75 C111.0875 65.28625 110.675 65.8225 110.25 66.375 C106.5 71.25 106.5 71.25 105.25073242 72.87402344 C104.41492624 73.96058779 103.57915165 75.04717645 102.7434082 76.13378906 C100.69816364 78.79288548 98.65230009 81.4514994 96.60546875 84.109375 C91.8924 90.23103457 87.19125402 96.36160412 82.5 102.5 C76.14284155 110.81819277 69.7630724 119.1186856 63.37109375 127.41015625 C62.93240967 127.97959961 62.49372559 128.54904297 62.04174805 129.13574219 C60.83552639 130.70148219 59.62872286 132.26677387 58.421875 133.83203125 C55.59013773 137.53612629 52.79750964 141.26998715 50 145 C81.68 145.33 113.36 145.66 146 146 C146 156.89 146 167.78 146 179 C97.16 179 48.32 179 -2 179 C-2 148.1045082 -2 148.1045082 6.5859375 139.34765625 C7.44203613 138.53192139 7.44203613 138.53192139 8.31542969 137.69970703 C11.19032014 134.79898423 13.49103039 131.492859 15.875 128.1875 C16.86694142 126.84944481 17.86177883 125.51353207 18.859375 124.1796875 C19.36662109 123.50131836 19.87386719 122.82294922 20.39648438 122.12402344 C24.98444128 116.04679673 29.70413799 110.06943875 34.38964844 104.06738281 C38.28602331 99.06518414 42.13962505 94.02999186 46 89 C47.66609253 86.83289153 49.33305199 84.66645047 51 82.5 C51.83334905 81.41667876 52.66668241 80.33334544 53.5 79.25 C58.5 72.75 58.5 72.75 59.74926758 71.12597656 C60.58507376 70.03941221 61.42084835 68.95282355 62.2565918 67.86621094 C64.30183636 65.20711452 66.34769991 62.5485006 68.39453125 59.890625 C75.28362953 50.94258781 82.14005764 41.97069385 89 33 C59.63 32.67 30.26 32.34 0 32 C0 21.44 0 10.88 0 0 Z " fill="#FCFCFC" transform="translate(795,150)"/>
<path d="M0 0 C15.0690441 -2.74206153 33.41177079 -6.01121171 48 0 C60.49761543 8.83758465 67.42268079 25.12047122 74.09277344 38.43310547 C77.98512294 46.09145095 82.80733706 53.07557663 87.70153809 60.11810303 C89.52275318 62.75764072 91.27218479 65.44145127 93.015625 68.1328125 C93.56347656 68.97714844 94.11132812 69.82148438 94.67578125 70.69140625 C95.19527344 71.49449219 95.71476562 72.29757813 96.25 73.125 C96.81589844 73.99769531 97.38179687 74.87039062 97.96484375 75.76953125 C99.31092511 77.84569063 100.65600011 79.92249286 102 82 C103.87250228 79.19124658 104.93529557 76.80818658 106.11962891 73.66845703 C106.74135483 72.02866379 106.74135483 72.02866379 107.37564087 70.35574341 C107.82144501 69.16842621 108.26724915 67.98110901 108.7265625 66.7578125 C109.1930722 65.52449188 109.65958191 64.29117126 110.14022827 63.02047729 C111.38659992 59.72538711 112.62848397 56.42862342 113.86938477 53.13146973 C115.10182414 49.85883548 116.33808963 46.58764821 117.57421875 43.31640625 C119.01911559 39.49204585 120.46368637 35.66756437 121.90631104 31.84234619 C125.91337939 21.21893541 129.95122973 10.60758576 134 0 C148.52 0 163.04 0 178 0 C174.62523407 11.24921976 174.62523407 11.24921976 173.18505859 15.01098633 C172.85907684 15.86783524 172.53309509 16.72468414 172.19723511 17.60749817 C171.8511319 18.50659409 171.50502869 19.40569 171.1484375 20.33203125 C170.77743927 21.30464401 170.40644104 22.27725677 170.02420044 23.27934265 C168.81094036 26.45827131 167.59290773 29.63534941 166.375 32.8125 C165.0809731 36.20038073 163.78824665 39.58875596 162.49554443 42.97714233 C161.6152971 45.28412201 160.73463837 47.59094475 159.85357666 49.89761353 C156.05316885 59.84915232 152.28404192 69.81229851 148.5256958 79.77978516 C141.27834418 99.00025329 133.9902068 118.20507259 126.68164062 137.40234375 C121.41112033 151.25218841 116.19476007 165.12153882 111 179 C96.81 179 82.62 179 68 179 C67 177 67 177 67.43765259 175.27990723 C67.70266571 174.58747925 67.96767883 173.89505127 68.24072266 173.18164062 C68.53962906 172.38945633 68.83853546 171.59727203 69.14649963 170.78108215 C69.65019325 169.48179024 69.65019325 169.48179024 70.1640625 168.15625 C70.50803574 167.2511821 70.85200897 166.3461142 71.20640564 165.41362 C72.33870756 162.43959799 73.48177688 159.46983903 74.625 156.5 C75.40294264 154.46290614 76.18020146 152.42555101 76.95678711 150.38793945 C78.92085723 145.23954338 80.89354824 140.09449805 82.86846924 134.95025635 C84.59369656 130.45204647 86.31069264 125.950707 88.02734375 121.44921875 C91.01044161 113.62981781 94.00182809 105.81363385 97 98 C96.15219971 98.19489014 95.30439941 98.38978027 94.4309082 98.59057617 C84.4823305 100.51552459 73.27730367 101.97510037 64 97 C51.72488594 86.76487019 44.06994573 70.14397559 36.38043213 56.42510986 C33.6180853 51.5722856 30.55607053 46.92167026 27.5 42.25 C26.4958275 40.64811749 25.49324893 39.0452348 24.4921875 37.44140625 C18.81096508 28.47316595 12.74637706 19.74779049 6.75195312 10.98730469 C6.3047995 10.33226456 5.85764587 9.67722443 5.39694214 9.00233459 C4.54823842 7.75955059 3.69750128 6.51815222 2.84451294 5.27830505 C0 1.1119903 0 1.1119903 0 0 Z " fill="#F9F9F9" transform="translate(1336,150)"/>
<path d="M0 0 C37.19034134 -6.73746603 37.19034134 -6.73746603 49.45013428 1.68280029 C59.16312842 10.60830491 65.16104766 23.27722121 71.13189697 34.8482666 C76.20835841 44.68108202 82.26021012 53.65736243 88.61309814 62.7003479 C91.29581346 66.52796012 93.92723749 70.3895085 96.55078125 74.2578125 C97.00537216 74.91720322 97.45996307 75.57659393 97.92832947 76.25596619 C101 80.77236199 101 80.77236199 101 83 C101.66 83 102.32 83 103 83 C103.08975098 82.21310791 103.17950195 81.42621582 103.27197266 80.61547852 C104.22170013 75.8990083 105.90078453 71.6249152 107.6484375 67.15234375 C108.01724533 66.19482712 108.38605316 65.23731049 108.76603699 64.2507782 C109.9637901 61.14430152 111.16931394 58.0409053 112.375 54.9375 C113.19712321 52.80996097 114.01865455 50.68219314 114.83959961 48.55419922 C116.06843831 45.36899382 117.29762953 42.18393154 118.52897644 38.99969482 C120.91182208 32.83554155 123.27512685 26.66466168 125.60546875 20.48046875 C125.8659198 19.78966721 126.12637085 19.09886566 126.39471436 18.38713074 C127.57104238 15.26446389 128.74383784 12.14052584 129.91357422 9.01538086 C130.31463379 7.9506958 130.71569336 6.88601074 131.12890625 5.7890625 C131.64046265 4.42322021 131.64046265 4.42322021 132.16235352 3.02978516 C133 1 133 1 134 0 C135.35094982 -0.09268999 136.70667091 -0.11747326 138.06079102 -0.11352539 C138.92160782 -0.11344986 139.78242462 -0.11337433 140.66932678 -0.11329651 C141.60473801 -0.10813522 142.54014923 -0.10297394 143.50390625 -0.09765625 C144.45692123 -0.0962413 145.40993622 -0.09482635 146.39183044 -0.09336853 C149.44875165 -0.08775152 152.50560077 -0.07519616 155.5625 -0.0625 C157.62955624 -0.05748719 159.69661362 -0.05292391 161.76367188 -0.04882812 C166.84247588 -0.03777656 171.9212257 -0.02050055 177 0 C174.8770409 7.51795119 172.28729734 14.79028431 169.4921875 22.08203125 C168.83560402 23.80784676 168.83560402 23.80784676 168.16575623 25.56852722 C167.22692562 28.03497778 166.28688858 30.50092393 165.34463501 32.96606445 C163.85150324 36.87253134 162.36317752 40.78081799 160.87573242 44.68945312 C159.36042221 48.67082929 157.8449396 52.65213853 156.3278656 56.63284302 C152.30558912 67.18783791 148.30806139 77.75205032 144.32272339 88.32104492 C137.05426409 107.59586688 129.74347337 126.8544927 122.41723633 146.10742188 C122.03386108 147.11528244 121.65048584 148.12314301 121.25549316 149.1615448 C120.551565 151.01202468 119.84733764 152.8623908 119.1427002 154.71260071 C116.06711381 162.79818497 113.03762227 170.89967396 110 179 C95.81 179 81.62 179 67 179 C68.1249155 171.12559151 68.1249155 171.12559151 69.60717773 167.31933594 C69.93551102 166.465186 70.2638443 165.61103607 70.60212708 164.73100281 C70.95901108 163.82461563 71.31589508 162.91822845 71.68359375 161.984375 C72.05518112 161.02275955 72.42676849 160.0611441 72.80961609 159.07038879 C74.01243221 155.96103725 75.22503003 152.85559808 76.4375 149.75 C77.67331414 146.56073227 78.90637533 143.37041022 80.13909912 140.1799469 C80.95330788 138.07274485 81.76828644 135.96584008 82.58404541 133.85923767 C85.83643082 125.45307806 89.01187525 117.02111371 92.125 108.5625 C92.73492798 106.90589355 92.73492798 106.90589355 93.35717773 105.21582031 C94.24050049 102.81140665 95.12183713 100.40630188 96 98 C95.15219971 98.20012695 94.30439941 98.40025391 93.4309082 98.60644531 C83.45583155 100.58951926 72.3257193 101.94466019 63 97 C52.47403166 88.30874015 46.01983578 74.150705 39.44316101 62.45648193 C33.50847539 51.92796533 26.79025113 42.00514744 19.93444824 32.06072998 C16.8677968 27.6049224 13.84044807 23.1227785 10.8125 18.640625 C10.29612976 17.88093414 9.77975952 17.12124329 9.2477417 16.33853149 C6.83644166 12.78032321 4.45633792 9.20372143 2.13671875 5.58496094 C1.72510498 4.9436322 1.31349121 4.30230347 0.8894043 3.64154053 C0 2 0 2 0 0 Z " fill="#FAFAFA" transform="translate(958,150)"/>
<path d="M0 0 C37.19034134 -6.73746603 37.19034134 -6.73746603 49.45013428 1.68280029 C59.16312842 10.60830491 65.16104766 23.27722121 71.13189697 34.8482666 C76.20835841 44.68108202 82.26021012 53.65736243 88.61309814 62.7003479 C91.29581346 66.52796012 93.92723749 70.3895085 96.55078125 74.2578125 C97.00537216 74.91720322 97.45996307 75.57659393 97.92832947 76.25596619 C101 80.77236199 101 80.77236199 101 83 C101.66 83 102.32 83 103 83 C103.08975098 82.21310791 103.17950195 81.42621582 103.27197266 80.61547852 C104.22170013 75.8990083 105.90078453 71.6249152 107.6484375 67.15234375 C108.01724533 66.19482712 108.38605316 65.23731049 108.76603699 64.2507782 C109.9637901 61.14430152 111.16931394 58.0409053 112.375 54.9375 C113.19712321 52.80996097 114.01865455 50.68219314 114.83959961 48.55419922 C116.06843831 45.36899382 117.29762953 42.18393154 118.52897644 38.99969482 C120.91182208 32.83554155 123.27512685 26.66466168 125.60546875 20.48046875 C125.8659198 19.78966721 126.12637085 19.09886566 126.39471436 18.38713074 C127.57104238 15.26446389 128.74383784 12.14052584 129.91357422 9.01538086 C130.31463379 7.9506958 130.71569336 6.88601074 131.12890625 5.7890625 C131.64046265 4.42322021 131.64046265 4.42322021 132.16235352 3.02978516 C133 1 133 1 134 0 C135.35094982 -0.09268999 136.70667091 -0.11747326 138.06079102 -0.11352539 C138.92160782 -0.11344986 139.78242462 -0.11337433 140.66932678 -0.11329651 C141.60473801 -0.10813522 142.54014923 -0.10297394 143.50390625 -0.09765625 C144.45692123 -0.0962413 145.40993622 -0.09482635 146.39183044 -0.09336853 C149.44875165 -0.08775152 152.50560077 -0.07519616 155.5625 -0.0625 C157.62955624 -0.05748719 159.69661362 -0.05292391 161.76367188 -0.04882812 C166.84247588 -0.03777656 171.9212257 -0.02050055 177 0 C174.8770409 7.51795119 172.28729734 14.79028431 169.4921875 22.08203125 C168.83560402 23.80784676 168.83560402 23.80784676 168.16575623 25.56852722 C167.22692562 28.03497778 166.28688858 30.50092393 165.34463501 32.96606445 C163.85150324 36.87253134 162.36317752 40.78081799 160.87573242 44.68945312 C159.36042221 48.67082929 157.8449396 52.65213853 156.3278656 56.63284302 C152.30558912 67.18783791 148.30806139 77.75205032 144.32272339 88.32104492 C137.05426409 107.59586688 129.74347337 126.8544927 122.41723633 146.10742188 C122.03386108 147.11528244 121.65048584 148.12314301 121.25549316 149.1615448 C120.551565 151.01202468 119.84733764 152.8623908 119.1427002 154.71260071 C116.06711381 162.79818497 113.03762227 170.89967396 110 179 C95.81 179 81.62 179 67 179 C68.1249155 171.12559151 68.1249155 171.12559151 69.60717773 167.31933594 C69.93551102 166.465186 70.2638443 165.61103607 70.60212708 164.73100281 C70.95901108 163.82461563 71.31589508 162.91822845 71.68359375 161.984375 C72.05518112 161.02275955 72.42676849 160.0611441 72.80961609 159.07038879 C74.01243221 155.96103725 75.22503003 152.85559808 76.4375 149.75 C77.67331414 146.56073227 78.90637533 143.37041022 80.13909912 140.1799469 C80.95330788 138.07274485 81.76828644 135.96584008 82.58404541 133.85923767 C85.83643082 125.45307806 89.01187525 117.02111371 92.125 108.5625 C92.73492798 106.90589355 92.73492798 106.90589355 93.35717773 105.21582031 C94.24050049 102.81140665 95.12183713 100.40630188 96 98 C95.15219971 98.20012695 94.30439941 98.40025391 93.4309082 98.60644531 C83.45583155 100.58951926 72.3257193 101.94466019 63 97 C52.47403166 88.30874015 46.01983578 74.150705 39.44316101 62.45648193 C33.50847539 51.92796533 26.79025113 42.00514744 19.93444824 32.06072998 C16.8677968 27.6049224 13.84044807 23.1227785 10.8125 18.640625 C10.29612976 17.88093414 9.77975952 17.12124329 9.2477417 16.33853149 C6.83644166 12.78032321 4.45633792 9.20372143 2.13671875 5.58496094 C1.72510498 4.9436322 1.31349121 4.30230347 0.8894043 3.64154053 C0 2 0 2 0 0 Z " fill="#FAFAFA" transform="translate(598,150)"/>
<path d="M0 0 C3.82407728 1.93386802 7.31624964 4.36785545 10.875 6.75 C12.33679688 7.68199219 12.33679688 7.68199219 13.828125 8.6328125 C14.74851562 9.24382812 15.66890625 9.85484375 16.6171875 10.484375 C17.87958252 11.31533691 17.87958252 11.31533691 19.16748047 12.16308594 C21 14 21 14 21.50219727 16.54199219 C21 19 21 19 19.50805664 20.53710938 C18.79512451 20.96830078 18.08219238 21.39949219 17.34765625 21.84375 C16.52152832 22.3490625 15.69540039 22.854375 14.84423828 23.375 C10.02264418 26.12972363 5.18313791 28.843231 0.30090332 31.48931885 C-9.64057051 36.88142055 -19.50308382 42.38700799 -29.25 48.125 C-38.29865558 53.45119807 -47.42384705 58.61994548 -56.59936523 63.72412109 C-65.26208019 68.55591973 -73.83751385 73.52901069 -82.38671875 78.55859375 C-83.79824219 79.38810547 -83.79824219 79.38810547 -85.23828125 80.234375 C-86.06368408 80.72131836 -86.88908691 81.20826172 -87.73950195 81.70996094 C-94.53418836 85.58760679 -94.53418836 85.58760679 -99 85 C-102.30032149 80.04951776 -101.41028668 74.44260411 -101.4375 68.625 C-101.47037109 67.39265625 -101.50324219 66.1603125 -101.53710938 64.890625 C-101.59040372 55.95655538 -101.59040372 55.95655538 -99.1796875 52.05078125 C-94.45597714 49.00416216 -89.63180583 46.23498579 -84.6875 43.5625 C-82.41691283 42.31441908 -80.14740699 41.06436919 -77.87890625 39.8125 C-76.72793457 39.17828125 -75.57696289 38.5440625 -74.39111328 37.890625 C-69.25536213 35.02732356 -64.1901926 32.04829327 -59.125 29.0625 C-49.30506523 23.29129945 -39.38927588 17.70824186 -29.40991211 12.21899414 C-24.69667501 9.62452322 -19.99453749 7.03367101 -15.39453125 4.2421875 C-14.7495166 3.85401855 -14.10450195 3.46584961 -13.43994141 3.06591797 C-11.85114633 2.09953746 -10.27442991 1.11336779 -8.69921875 0.125 C-5.26516963 -1.30626794 -3.59212486 -0.86168746 0 0 Z " fill="#448AED" transform="translate(108,259)"/>
<path d="M0 0 C2.61664071 2.61664071 1.27440137 9.69678973 1.29516602 13.24584961 C1.31234603 15.29414312 1.35620989 17.34080822 1.40039062 19.38867188 C1.40876953 20.67966797 1.41714844 21.97066406 1.42578125 23.30078125 C1.44036377 24.48841064 1.45494629 25.67604004 1.4699707 26.8996582 C0.89560981 30.68864989 -0.00228737 31.68550035 -3 34 C-4.66991935 35.07063854 -6.38148865 36.07800732 -8.12109375 37.03125 C-9.12760986 37.58796387 -10.13412598 38.14467773 -11.17114258 38.71826172 C-12.7879895 39.60022217 -12.7879895 39.60022217 -14.4375 40.5 C-16.72178074 41.76224917 -19.00562891 43.02528145 -21.2890625 44.2890625 C-22.99690918 45.23120605 -22.99690918 45.23120605 -24.73925781 46.19238281 C-29.28678554 48.71333934 -33.80279627 51.28715125 -38.3125 53.875 C-39.55410889 54.58619995 -39.55410889 54.58619995 -40.82080078 55.31176758 C-42.57605212 56.31734925 -44.33109048 57.32330275 -46.0859375 58.32958984 C-49.37929363 60.21742016 -52.67380619 62.10322397 -55.96875 63.98828125 C-56.57086807 64.33282349 -57.17298615 64.67736572 -57.79335022 65.03234863 C-60.84042393 66.77542949 -63.8886595 68.51642641 -66.93920898 70.25341797 C-72.01954067 73.14701886 -77.09559548 76.04461012 -82.12890625 79.01953125 C-83.22948364 79.66208862 -83.22948364 79.66208862 -84.35229492 80.31762695 C-85.64381236 81.07258398 -86.92980037 81.83713598 -88.20825195 82.61401367 C-92.0274397 84.82785167 -94.62194948 85.40801962 -99 85 C-101.70068359 83.62304688 -101.70068359 83.62304688 -104.3984375 81.71875 C-105.37167969 81.04199219 -106.34492188 80.36523438 -107.34765625 79.66796875 C-108.34667969 78.95253906 -109.34570312 78.23710937 -110.375 77.5 C-111.39722656 76.78457031 -112.41945312 76.06914062 -113.47265625 75.33203125 C-115.9908174 73.56696502 -118.49916227 71.78948551 -121 70 C-120.48396512 65.4630939 -120.48396512 65.4630939 -118.37524414 63.4453125 C-117.66489014 63.00960937 -116.95453613 62.57390625 -116.22265625 62.125 C-115.40555176 61.6196875 -114.58844727 61.114375 -113.74658203 60.59375 C-108.68253234 57.65525077 -103.57673422 54.80483249 -98.4375 52 C-96.01752328 50.67029137 -93.59999643 49.33619141 -91.18359375 48 C-90.57671722 47.66444092 -89.9698407 47.32888184 -89.34457397 46.9831543 C-83.50953383 43.74632045 -77.749549 40.38611901 -72 37 C-62.45752208 31.38537824 -52.81145434 25.98116082 -43.11694336 20.6340332 C-34.16966233 15.68506636 -25.32172684 10.57961824 -16.51171875 5.390625 C-15.58101563 4.84277344 -14.6503125 4.29492188 -13.69140625 3.73046875 C-12.87873291 3.24989014 -12.06605957 2.76931152 -11.22875977 2.27416992 C-4.77018418 -1.41816286 -4.77018418 -1.41816286 0 0 Z " fill="#4889ED" transform="translate(325,135)"/>
<path d="M0 0 C3.84207684 3.84207684 2.36986635 10.69514882 2.375 15.875 C2.39949219 17.16792969 2.42398438 18.46085937 2.44921875 19.79296875 C2.45308594 21.03433594 2.45695312 22.27570313 2.4609375 23.5546875 C2.46915527 24.69405762 2.47737305 25.83342773 2.48583984 27.00732422 C1.88304973 30.72039014 0.93559295 31.70964333 -2 34 C-3.80221191 35.17613207 -5.64540136 36.29080076 -7.515625 37.35546875 C-8.59489258 37.97413818 -9.67416016 38.59280762 -10.78613281 39.23022461 C-11.92920898 39.87612549 -13.07228516 40.52202637 -14.25 41.1875 C-15.42826955 41.85713449 -16.60632853 42.52713962 -17.78417969 43.19750977 C-20.11494223 44.52321091 -22.44756964 45.84543637 -24.78125 47.16601562 C-27.5572306 48.74771816 -30.31438894 50.35494402 -33.0625 51.984375 C-34.1448291 52.6182312 -34.1448291 52.6182312 -35.24902344 53.26489258 C-36.53911187 54.02090707 -37.82408671 54.78575002 -39.10253906 55.5612793 C-42.96412481 57.79310977 -45.57781951 58.38300445 -50 58 C-53.86787073 56.20135453 -57.29139345 53.71183809 -60.8125 51.3125 C-62.26172852 50.37374023 -62.26172852 50.37374023 -63.74023438 49.41601562 C-64.65740234 48.80048828 -65.57457031 48.18496094 -66.51953125 47.55078125 C-67.35589111 46.99044189 -68.19225098 46.43010254 -69.05395508 45.8527832 C-71.39327011 43.62557685 -71.69449912 42.16384989 -72 39 C-68.73574506 36.28125397 -65.49969644 34.0183512 -61.78125 31.96875 C-60.77690918 31.41147217 -59.77256836 30.85419434 -58.73779297 30.2800293 C-57.13508545 29.39891479 -57.13508545 29.39891479 -55.5 28.5 C-53.2417913 27.24680743 -50.98398517 25.99288917 -48.7265625 24.73828125 C-47.59637695 24.11131348 -46.46619141 23.4843457 -45.30175781 22.83837891 C-40.47569267 20.15128407 -35.67177007 17.42647222 -30.875 14.6875 C-30.02091553 14.2018457 -29.16683105 13.71619141 -28.28686523 13.21582031 C-24.33928739 10.96006154 -20.42795445 8.66694437 -16.57421875 6.25390625 C-15.55062256 5.61739136 -15.55062256 5.61739136 -14.50634766 4.96801758 C-13.2600235 4.18706917 -12.02064399 3.3948596 -10.79052734 2.58862305 C-7.06134861 0.25062633 -4.38970147 -0.58108278 0 0 Z " fill="#448AED" transform="translate(324,194)"/>
<path d="M0 0 C3.81132099 1.85349688 7.24117079 4.31750132 10.75 6.6875 C12.20599609 7.62625977 12.20599609 7.62625977 13.69140625 8.58398438 C14.61308594 9.19951172 15.53476563 9.81503906 16.484375 10.44921875 C17.74846191 11.28972778 17.74846191 11.28972778 19.03808594 12.1472168 C21 14 21 14 22.03222656 16.47192383 C22 19 22 19 20.40332031 21.11376953 C17.87499204 23.09811169 15.37355855 24.64932046 12.546875 26.1796875 C11.4640625 26.77209229 10.38125 27.36449707 9.265625 27.97485352 C7.52539062 28.91542603 7.52539062 28.91542603 5.75 29.875 C3.30492012 31.21053704 0.86310109 32.55196509 -1.578125 33.89453125 C-2.19715698 34.23441574 -2.81618896 34.57430023 -3.45397949 34.92448425 C-10.67095143 38.89912438 -17.77317416 43.06770851 -24.86816406 47.25537109 C-27.57248473 48.84797935 -30.28532743 50.42511669 -33 52 C-33.96292969 52.57218262 -34.92585938 53.14436523 -35.91796875 53.73388672 C-37.35076172 54.55977295 -37.35076172 54.55977295 -38.8125 55.40234375 C-40.09060547 56.15052368 -40.09060547 56.15052368 -41.39453125 56.91381836 C-44.50135807 58.20900881 -46.66610783 58.41644591 -50 58 C-53.23350295 53.14974558 -52.40975848 47.82742261 -52.4375 42.125 C-52.47037109 40.94035156 -52.50324219 39.75570312 -52.53710938 38.53515625 C-52.59042154 29.93735728 -52.59042154 29.93735728 -50.171875 26.09765625 C-45.47658527 22.99252006 -40.70711462 20.09293161 -35.8125 17.3125 C-34.7505542 16.70325684 -33.6886084 16.09401367 -32.59448242 15.46630859 C-30.43367813 14.22938405 -28.27067961 12.99628449 -26.10546875 11.76708984 C-23.25921021 10.14749713 -20.42511472 8.50872015 -17.59375 6.86328125 C-16.00058669 5.9494972 -14.40687365 5.03667061 -12.8125 4.125 C-12.08973877 3.70259033 -11.36697754 3.28018066 -10.62231445 2.8449707 C-6.86163397 0.72590352 -4.30607052 -0.47583803 0 0 Z " fill="#4488ED" transform="translate(59,226)"/>
<path d="M0 0 C1 1 1 1 1.11352539 3.77563477 C1.10567017 5.59019165 1.10567017 5.59019165 1.09765625 7.44140625 C1.09282227 9.39916992 1.09282227 9.39916992 1.08789062 11.39648438 C1.07953401 12.7851569 1.07106905 14.17382877 1.0625 15.5625 C1.05748666 16.95507656 1.05292347 18.34765481 1.04882812 19.74023438 C1.03699434 23.1601987 1.0205088 26.58007844 1 30 C-1.10209857 26.84685215 -1.2434761 26.13896919 -1.1953125 22.55078125 C-1.18886719 21.70322266 -1.18242187 20.85566406 -1.17578125 19.98242188 C-1.15064453 18.66081055 -1.15064453 18.66081055 -1.125 17.3125 C-1.11597656 16.41982422 -1.10695313 15.52714844 -1.09765625 14.60742188 C-1.07409748 12.40467686 -1.04120329 10.20247412 -1 8 C-5.31563831 8.52885415 -8.34994438 9.49073623 -12.0625 11.73828125 C-13.48767944 12.58821655 -13.48767944 12.58821655 -14.94165039 13.45532227 C-15.95090576 14.06819092 -16.96016113 14.68105957 -18 15.3125 C-20.1638362 16.60152743 -22.32923461 17.88793564 -24.49609375 19.171875 C-25.58647949 19.81833984 -26.67686523 20.46480469 -27.80029297 21.13085938 C-32.5002662 23.8763954 -37.27145267 26.48012853 -42.0625 29.0625 C-50.43567926 33.58619165 -58.73960251 38.21783077 -67.01464844 42.91845703 C-72.36292336 45.9530099 -77.72269982 48.96530431 -83.1015625 51.9453125 C-83.70243179 52.27828842 -84.30330109 52.61126434 -84.92237854 52.95433044 C-87.84349822 54.57227994 -90.76602942 56.18758861 -93.69018555 57.80004883 C-95.80334096 58.96895717 -97.91282278 60.14453834 -100.01806641 61.32763672 C-101.99456111 62.43611786 -103.98126975 63.52659385 -105.97802734 64.59814453 C-106.88633301 65.1032959 -107.79463867 65.60844727 -108.73046875 66.12890625 C-109.53250732 66.56404541 -110.3345459 66.99918457 -111.16088867 67.44750977 C-113.53758464 69.45380336 -113.69554449 70.96979098 -114 74 C-116.31 72.68 -118.62 71.36 -121 70 C-120.48396512 65.4630939 -120.48396512 65.4630939 -118.37524414 63.4453125 C-117.66489014 63.00960937 -116.95453613 62.57390625 -116.22265625 62.125 C-115.40555176 61.6196875 -114.58844727 61.114375 -113.74658203 60.59375 C-108.68253234 57.65525077 -103.57673422 54.80483249 -98.4375 52 C-96.01752328 50.67029137 -93.59999643 49.33619141 -91.18359375 48 C-90.57671722 47.66444092 -89.9698407 47.32888184 -89.34457397 46.9831543 C-83.50953383 43.74632045 -77.749549 40.38611901 -72 37 C-62.45752208 31.38537824 -52.81145434 25.98116082 -43.11694336 20.6340332 C-34.16966233 15.68506636 -25.32172684 10.57961824 -16.51171875 5.390625 C-15.58101563 4.84277344 -14.6503125 4.29492188 -13.69140625 3.73046875 C-12.87873291 3.24989014 -12.06605957 2.76931152 -11.22875977 2.27416992 C-4.77018418 -1.41816286 -4.77018418 -1.41816286 0 0 Z " fill="#3A8DEF" transform="translate(325,135)"/>
<path d="M0 0 C6.25615219 4.62189203 10.75454139 10.1787924 12.578125 17.8046875 C13.56642579 25.48125642 12.62512055 33.11125731 7.9140625 39.4140625 C1.11489004 46.5690795 -4.47265415 49.66273234 -14.3125 50.375 C-21.52209684 50.47654362 -27.53052214 47.98235861 -33.0859375 43.4140625 C-39.75219659 36.12837225 -41.62580182 29.8364329 -41.4609375 19.99609375 C-40.73033641 13.01733122 -37.84538691 7.71694581 -32.7109375 2.9765625 C-23.37164595 -4.21063144 -10.46531102 -5.98633017 0 0 Z M-31.0859375 10.6015625 C-34.16976627 15.68987997 -35.58255171 21.19075515 -34.671875 27.1015625 C-33.07342283 33.00353975 -31.1836912 37.4644273 -25.8515625 40.8203125 C-20.85491395 43.54575716 -16.86645759 45.35996579 -11.0859375 44.4140625 C-3.29475016 42.08219305 1.18519543 38.00352075 5.2890625 31.1015625 C6.84128005 24.42702701 6.69569457 18.25593969 3.24609375 12.234375 C-0.44145983 7.19507891 -4.90477755 3.70180416 -11.0859375 2.4140625 C-18.64935601 1.39591001 -26.28975751 4.61343245 -31.0859375 10.6015625 Z " fill="#ECECEC" transform="translate(1580.0859375,150.5859375)"/>
<path d="M0 0 C2.701875 -0.0825 5.40375 -0.165 8.1875 -0.25 C9.02949951 -0.28641602 9.87149902 -0.32283203 10.73901367 -0.36035156 C14.67603679 -0.41837972 16.56872297 -0.27286024 19.98828125 1.890625 C22.59053841 4.61920532 22.95361529 5.50832204 23.3125 9.3125 C22.95409018 13.54173592 21.90381772 15.00543798 19 18 C20.58962659 22.03520597 22.28232318 26.01811282 24 30 C21.36 30 18.72 30 16 30 C15.16151196 28.54462432 14.32936066 27.08559627 13.5 25.625 C13.0359375 24.81289062 12.571875 24.00078125 12.09375 23.1640625 C11 21 11 21 11 19 C9.68 19 8.36 19 7 19 C7 22.63 7 26.26 7 30 C4.69 30 2.38 30 0 30 C0 20.1 0 10.2 0 0 Z M7 5 C7 7.97 7 10.94 7 14 C10.41656024 14.16677282 10.41656024 14.16677282 14 14 C16.2491908 12.17296773 16.2491908 12.17296773 16.25 9.5 C16.2491908 6.82703227 16.2491908 6.82703227 14 5 C10.41656024 4.83322718 10.41656024 4.83322718 7 5 Z " fill="#E9E9E9" transform="translate(1555,159)"/>
</svg>
